<?xml version="1.0" encoding="UTF-8"?>
<svg id="Layer_2" data-name="Layer 2" xmlns="http://www.w3.org/2000/svg" viewBox="0 0 799.05 815.7">
  <defs>
    <style>
      .cls-1 {
        fill: #0e180b;
        stroke-width: 0px;
      }
    </style>
  </defs>
  <g id="Layer_3" data-name="Layer 3">
    <g>
      <path class="cls-1" d="m277.19,160.79c2.5-1.1,5-2.23,7.42-3.5,7.13-3.76,13.5-8.78,19.82-13.78,2.8-2.21-58.98,34.98-56.17,32.76l63.85-38.83c73.59-28.23,147.19-56.45,220.78-84.68,38.16-14.64,45.2-16.85,83.36-31.49l31.13-11.7c22.29-7.38,46.23-9.75,69.54-6.91,7.55.92,15.32,2.5,21.46,6.99,4.77,3.48,8.26,8.52,13.11,11.88,5.46,3.79,12.2,5.18,18.73,6.44s13.26,2.56,18.81,6.23,6.4,7.24,8.4,14.24l-8-14c2.79.44,8.18,11.18,8,14h0c-6.84,2.72-13.65,4.8-20.7,6.94-3.48,1.06-6.53,3.19-9.5,5.29-13.25,9.34-26.65,18.81-37.28,31.04-10.82,12.45-19.04,27.95-33.42,36.03-11.05,6.21-24.24,7.1-36.22,11.24l.36.22c-1.18,10.05-1.83,20.16-1.96,30.27-.08,6.8.08,13.65,1.51,20.29,3.17,14.7,2.66,31.45,8.04,45.52l3,41c4.35,44.32,2.6,47.97-.1,92.42-.41,6.79-.91,13.61-2.46,20.24-1.88,8.07-5.27,15.71-7.53,23.69-2,7.04-3.13,14.31-5.11,21.36-2.51,8.92-15.96,61.86-19.8,70.29l9.61-44.66c1.9,9.43-2,18.92-5.02,28.06-6.01,18.16-8.75,37.29-15.18,55.3-2.33,6.52-5.14,12.88-7.03,19.55-2.64,9.3-3.46,19.09-6.82,28.15-2.65,7.14-6.79,13.61-9.92,20.56-6.45,14.36-8.57,30.79-17.73,43.59l-.26-1.06c-1.85,7.55-3.73,15.19-7.42,22.03-2.27,4.21-5.18,8.05-7.37,12.3-4.76,9.22-5.93,19.96-10.7,29.17-3.17,6.12-7.81,11.34-11.47,17.17-3.05,4.86-5.41,10.11-8.04,15.2-6.81,13.15-15.5,25.21-24.16,37.22-4.4,6.11-8.81,12.22-13.21,18.33-2.12,2.94-4.38,6-7.67,7.5-2.82,1.29-6.03,1.27-9.12,1.22-2.88-.04-5.87-.11-8.47-1.36-5.09-2.46-7.09-8.53-8.59-13.98-2.06-7.48-3.77-16.52,1.57-22.16l-3.37,11.19c-2.08-21.76-3.23-43.61-3.45-65.47-.06-6.3-.05-12.61.27-18.91.95-18.7,4.6-37.16,6.25-55.8s1.22-37.95-5.67-55.36l.05-1.08c-2.02-6.94-8.96-11.01-14.05-16.14-3.42-3.45-6.1-7.54-8.7-11.64-11.59-18.26-22.21-37.45-27.73-58.37-4.42-16.76-5.46-34.2-6.28-51.51-.33-6.92-.63-13.86-.21-20.78,1.18-19.37,7.94-37.92,14.64-56.13l-.04-1.15c6.91-15.92,8.29-33.8,6.64-51.08-.35-3.66-.84-7.34-2.01-10.82-.97-2.89-2.4-5.61-3.99-8.21-10.12-16.57-26.41-28.24-42.36-39.32-2.7-1.87-6.15-3.81-9.05-2.28l9.08,1.73c-61.09,15.1-131.66,9.16-194.57,7.65-10.43-.25-21.3-.31-30.71,4.21-4.19,2.01-7.97,4.88-12.34,6.44-6.54,2.34-13.9,1.58-20.39,4.06-7.68,2.93-13.69,10.22-21.89,10.86-2.93.23-5.86-.44-8.8-.33-7.41.28-13.62,5.37-20.4,8.35-18.93,8.31-40.63-.17-59.51-8.59-4.14-1.85-8.9-4.53-9.21-9.06v-.77c7.24-6.51,16.21-10.75,25.13-14.68,25.27-11.14,51.41-20.64,75.15-34.76,11.2-6.66,21.96-14.39,34.28-18.65,6.4-2.21,13.1-3.43,19.67-5.11,13.32-3.4,26.07-8.67,38.69-14.13,45.2-19.57,89.23-41.83,131.78-66.62"/>
      <path class="cls-1" d="m277.95,162.09c6.02-2.66,11.68-5.71,17.05-9.51,2.43-1.72,4.79-3.53,7.14-5.36,1.15-.9,2.96-1.76,3.68-3.03.37-.64.21-1.72-.54-2.05-1.7-.74-4.41,1.57-5.76,2.35-4.24,2.46-8.45,4.95-12.67,7.45-10.37,6.14-20.73,12.32-31.12,18.42-1.91,1.12-3.82,2.24-5.75,3.34-.5.28-1.27.55-1.68.95-.84.81-1.03-.28.62.44l.54,2.05c-.54.94.22.04.9-.37,1.44-.87,2.88-1.75,4.31-2.62l14.46-8.8,33.88-20.61c3.06-1.86,6.08-3.93,9.24-5.62,2.92-1.56,6.24-2.51,9.33-3.7,6.8-2.61,13.61-5.22,20.41-7.83,26.46-10.15,52.93-20.3,79.39-30.45,49.23-18.88,98.35-38.04,147.75-56.49,26.22-9.79,52.23-20.33,78.63-29.62,12.29-4.33,25.51-6.69,38.48-7.62,12.97-.92,26.9-.84,39.58,2.33,6.6,1.65,11.79,4.72,16.57,9.5,4.04,4.03,7.82,7.89,13.12,10.23,10.73,4.75,24.03,3.43,33.68,10.67,4.2,3.15,5.41,7.88,6.78,12.7l2.74-1.16c-2.67-4.67-5.33-9.33-8-14l-1.69,2.2c3.25.99,6.84,9.47,6.9,12.55l1.1-1.45c-7.32,2.87-15.06,4.63-22.34,7.54-6.38,2.55-12.05,7.49-17.56,11.49-11.31,8.21-22.2,17.04-31.03,27.96-8.03,9.93-14.89,21.29-25.21,29.11-11.93,9.03-27.21,9.84-40.98,14.45-1.21.41-1.5,2.05-.36,2.74-.33-.2-1.49,10.21-1.6,11.64-.35,4.78-.58,9.57-.69,14.36-.21,9.07.4,17.67,2.04,26.58,1.54,8.35,2.08,16.84,3.3,25.24.6,4.16,1.35,8.31,2.49,12.36.52,1.87,1.35,3.66,1.71,5.53,1.39,7.25,1.11,15.23,1.65,22.58.47,6.43.83,12.88,1.45,19.3,1.3,13.51,2.52,27.07,2.48,40.66-.03,11.93-1.01,23.85-1.81,35.74-.63,9.35-.8,18.83-2.17,28.11s-4.62,17.15-7.4,25.66c-3.69,11.3-5.8,23.17-8.84,34.68s-5.96,22.64-9.06,33.93c-2.44,8.88-4.4,18.43-8.15,26.89l2.74,1.16c3.2-14.89,6.41-29.77,9.61-44.66h-2.89c1.3,7.64-.89,14.99-3.3,22.18-2.17,6.48-4.2,12.96-5.91,19.58-3.39,13.15-6.05,26.52-10.49,39.38-2.18,6.32-4.89,12.45-6.89,18.84-1.96,6.26-2.99,12.74-4.37,19.14-1.45,6.75-3.61,13.07-6.74,19.23-2.72,5.36-5.62,10.6-7.84,16.2-5.24,13.25-7.75,27.61-16.01,39.5l2.74.36-.26-1.06c-.35-1.43-2.54-1.43-2.89,0-1.93,7.88-3.92,15.82-7.96,22.93-3.52,6.19-7.46,11.78-9.83,18.56-2.6,7.43-4.12,15.28-7.87,22.26-3.39,6.3-8.23,11.66-11.9,17.79-3.97,6.63-6.99,13.77-10.85,20.47s-8.05,13.01-12.43,19.27c-4.69,6.71-9.52,13.33-14.31,19.97-2.36,3.27-4.69,6.57-7.08,9.82s-4.97,6.65-9.27,7.62-11.2.98-14.92-1.34-5.12-6.55-6.29-10.34c-2.18-7.11-4.86-16.61.56-22.9l-2.51-1.46c-1.12,3.73-2.25,7.46-3.37,11.19l2.95.4c-1.96-20.7-3.12-41.48-3.41-62.27-.3-20.83,1.96-41.01,4.64-61.63,2.46-18.95,4.22-38.32.44-57.23-.93-4.62-2.49-8.93-3.79-13.43-.94-3.22-1.62-5.88-3.8-8.65s-4.72-4.86-7.27-7.08c-3.84-3.35-7.07-6.95-9.92-11.19-10.61-15.73-20.21-32.77-26.56-50.68-6.74-19.03-8.49-39.03-9.49-59.05-.5-9.98-1-19.98.2-29.93,1.26-10.51,4.07-20.78,7.36-30.81,5.41-16.45,12.31-32.23,13.62-49.73.74-9.85.78-20.64-1.61-30.3-2.18-8.84-8.02-16.67-14-23.35-6.42-7.17-13.89-13.31-21.6-19.04-3.82-2.84-7.71-5.6-11.64-8.3-3.26-2.24-6.76-4.32-10.77-2.82-1.25.47-1.59,2.59,0,2.89l9.08,1.73v-2.89c-48.06,11.75-98.2,10.73-147.29,9.12-12.08-.4-24.16-.86-36.25-1.23-11.37-.34-23.29-1.42-34.44,1.38-5.75,1.44-10.44,4.39-15.59,7.15-5.64,3.03-11.54,3.36-17.73,4.31-5.15.79-9.49,2.62-13.84,5.44s-8.93,6.53-14.36,7.01-10.52-.87-16.07,1.28c-5.16,2-9.69,5.29-14.83,7.34-11.6,4.63-24.36,2.85-35.97-.73-3.69-1.14-32.95-10.31-29.25-16.51,1.17-1.96,5.29-3.91,7.3-5.16,2.56-1.6,5.22-3.03,7.92-4.38,5.39-2.68,10.94-5.04,16.47-7.4,23.05-9.86,46.58-18.91,68.16-31.83,10.82-6.48,21.28-13.97,33.3-18.12,11.7-4.04,24-5.88,35.69-10.08,23.65-8.49,46.59-19.53,69.2-30.44,23.33-11.26,46.32-23.24,68.9-35.94,5.59-3.14,11.15-6.33,16.7-9.55,1.67-.97.16-3.56-1.51-2.59-46.49,27.04-94.85,52.06-144.81,72.08-12.22,4.9-24.58,8.17-37.31,11.39-12.04,3.05-22.54,8.82-33.02,15.33-22.45,13.94-46.28,24.25-70.57,34.51-11.36,4.8-23.36,9.25-33.54,16.34-2.84,1.98-6.92,3.83-5.98,7.77s4.49,6.32,7.81,8.02c19.33,9.89,44.55,18.79,65.34,8.38,5.5-2.76,10.9-6.74,17.27-7.02,5.64-.25,10.27.91,15.61-1.56,4.68-2.16,8.58-5.62,13.15-7.96,5.64-2.89,11.92-2.8,18.02-3.92s10.41-4.09,15.54-6.84c6.08-3.27,12.8-4.54,19.63-4.91,12.33-.66,24.85.28,37.18.71,50.56,1.75,101.87,4.34,151.94-4.64,6.05-1.09,12.06-2.37,18.03-3.83,1.39-.34,1.47-2.61,0-2.89l-9.08-1.73v2.89c4.37-1.64,9,2.88,12.35,5.24,3.98,2.8,7.94,5.65,11.78,8.65,6.74,5.26,13.19,10.98,18.72,17.53,6.18,7.34,11.12,15.38,12.37,25.03,1.14,8.79,1.26,17.82.42,26.63-1.71,17.87-9.48,34.18-14.73,51.16-2.75,8.89-4.97,17.96-6.07,27.22-1.18,9.95-.7,19.95-.2,29.93.91,18.32,2.32,36.78,7.78,54.39s13.83,33.09,23.23,48.3c4.49,7.27,8.94,14.29,15.4,19.97,2.76,2.42,5.74,4.76,7.92,7.75s2.9,7.05,4.03,10.53c5.87,18.14,5.31,37.58,3.26,56.32-2.39,21.85-6.03,43.29-5.93,65.35s1.32,45.81,3.48,68.62c.15,1.63,2.43,2.1,2.95.4,1.12-3.73,2.25-7.46,3.37-11.19.42-1.38-1.51-2.61-2.51-1.46-4.37,5.07-4.48,11.47-3.33,17.79,1.08,5.93,2.7,13.22,6.88,17.81,4.69,5.15,13.63,5.43,20.02,3.99,7.09-1.6,10.92-8.8,14.84-14.24,10.91-15.13,22.45-30.05,31.5-46.4,4.28-7.74,7.71-15.86,12.84-23.12,4.84-6.86,9.43-13.33,12.18-21.34,1.61-4.69,2.81-9.52,4.45-14.2,1.8-5.14,4.4-9.59,7.28-14.17,5.36-8.52,8.12-17.6,10.51-27.32h-2.89l.26,1.06c.33,1.34,2.04,1.36,2.74.36,7.08-10.2,10.07-22.24,14-33.85,4.3-12.72,12.31-23.86,15.73-36.87,1.72-6.55,2.65-13.28,4.33-19.84,1.72-6.71,4.42-13.08,6.83-19.55,5-13.46,7.86-27.54,11.38-41.43,1.93-7.62,4.32-15.04,6.77-22.51s4.12-14.61,2.82-22.31c-.25-1.46-2.59-1.4-2.89,0-3.2,14.89-6.41,29.77-9.61,44.66-.34,1.56,2.01,2.79,2.74,1.16,3.08-6.94,4.83-14.61,6.87-21.9,3-10.73,5.86-21.5,8.7-32.27,2.38-9.03,4.93-18.03,6.93-27.16,1.95-8.9,4.8-17.31,7.66-25.95s4.13-17.03,4.75-25.92c1.82-26.28,3.88-52.32,1.82-78.63-1.38-17.6-2.86-35.19-4.14-52.81-.24-3.28-.56-5.6-1.55-8.75-3.01-9.55-3.69-19.61-4.9-29.49s-3.45-19.49-3.49-29.54c-.04-11.16.7-22.33,1.97-33.41.06-.51-.33-1.04-.74-1.3l-.36-.22-.36,2.74c13.23-4.43,27.88-5.34,39.71-13.33,10.03-6.77,16.96-16.9,24.19-26.38,9.04-11.85,19.74-21.59,31.72-30.42,5.57-4.1,11.24-8.86,17.41-12.04,3.83-1.98,8.25-2.89,12.34-4.21s7.88-2.65,11.75-4.17c.61-.24,1.11-.74,1.1-1.45-.06-3.12-1.83-6.39-3.31-9.05-1.3-2.33-3.05-5.56-5.79-6.4-1.27-.39-2.33,1.09-1.69,2.2,2.67,4.67,5.33,9.33,8,14,.84,1.47,3.21.49,2.74-1.16-1.11-3.89-2.09-8.04-4.69-11.25-3.12-3.87-7.9-6.14-12.53-7.66-5.73-1.87-11.75-2.55-17.59-3.99-6.82-1.69-12.18-4.61-17.15-9.59-4.16-4.16-8.11-8.06-13.58-10.46s-10.83-3.25-16.42-3.93c-13.4-1.64-26.98-1.52-40.36.23-16.55,2.17-31.55,7.48-47.02,13.3s-29.59,11.25-44.42,16.8c-47.39,17.75-94.61,35.93-141.85,54.05-27.72,10.63-55.45,21.27-83.17,31.9-13.61,5.22-27.22,10.44-40.83,15.66-4.43,1.7-8.08,3.15-12.03,5.55-10.76,6.54-21.52,13.09-32.28,19.63-8.86,5.39-18.26,10.35-26.77,16.28-.47.32-1.02.53-1.32,1.05-.37.64-.21,1.72.54,2.05,1.7.74,4.41-1.57,5.76-2.35,4.24-2.46,8.45-4.95,12.67-7.45,10.37-6.14,20.73-12.32,31.12-18.42,1.91-1.12,3.82-2.24,5.75-3.34.5-.28,1.27-.55,1.68-.95.84-.81,1.03.28-.62-.44l-.54-2.05c.47-.83-.82.56-.97.67-1.42,1.05-2.79,2.2-4.19,3.26-2.26,1.73-4.55,3.41-6.92,5-4.66,3.13-9.59,5.63-14.71,7.9-1.76.78-.24,3.36,1.51,2.59h0Z"/>
    </g>
  </g>
</svg>