<?xml version="1.0" encoding="utf-8"?>
<!-- Generator: Adobe Illustrator 28.3.0, SVG Export Plug-In . SVG Version: 6.00 Build 0)  -->
<svg version="1.1" id="Layer_1" xmlns="http://www.w3.org/2000/svg" xmlns:xlink="http://www.w3.org/1999/xlink" x="0px" y="0px"
	 viewBox="0 0 418.68 430.82" style="enable-background:new 0 0 418.68 430.82;" xml:space="preserve">
<style type="text/css">
	.st0{fill:#A5C3CE;}
	.st1{fill:#92B1C1;}
	.st2{fill:#B4CBD9;}
	.st3{fill:#A9B28D;}
	.st4{fill:#D2D9C6;}
	.st5{fill:#C2CCAE;}
	.st6{fill:#CE99A3;}
	.st7{fill:#BF8291;}
	.st8{fill:#D5ABB1;}
	.st9{fill:#F4C79F;}
	.st10{fill:#E6B481;}
	.st11{fill:#DDA370;}
</style>
<g>
	
		<image style="overflow:visible;opacity:0.5;" width="1156" height="1157" xlink:href="BA7810F.png"  transform="matrix(0.24 0 0 0.24 66 74.64)">
	</image>
	<g>
		<g>
			<g>
				<g>
					<path class="st0" d="M183.08,138.24L168.38,83.4c-11.05,2.98-21.79,7.41-31.96,13.29c-10.18,5.88-19.38,12.96-27.49,21.03
						l40.15,40.15C158.5,148.49,170.24,141.7,183.08,138.24z"/>
				</g>
				<g>
					<path class="st1" d="M222.35,138.21l14.67-54.76c-22.85-6.12-46.39-6.05-68.64-0.05l14.69,54.84
						C195.54,134.88,209.01,134.63,222.35,138.21z"/>
				</g>
				<g>
					<path class="st2" d="M149.08,157.87l-40.15-40.15c-16.32,16.27-28.15,36.61-34.28,59.46l54.76,14.67
						C132.99,178.52,139.94,166.98,149.08,157.87z"/>
				</g>
				<g>
					<path class="st3" d="M183.07,284.79l-14.67,54.76c22.85,6.12,46.39,6.05,68.64,0.05l-14.69-54.84
						C209.88,288.12,196.41,288.36,183.07,284.79z"/>
				</g>
				<g>
					<path class="st4" d="M256.34,265.13l40.15,40.15c16.32-16.27,28.15-36.61,34.28-59.46L276,231.14
						C272.43,244.47,265.48,256.02,256.34,265.13z"/>
				</g>
				<g>
					<path class="st5" d="M296.48,305.27l-40.15-40.15c-9.42,9.38-21.16,16.17-34,19.63l14.69,54.84
						c11.05-2.98,21.79-7.41,31.96-13.29C279.17,320.43,288.38,313.35,296.48,305.27z"/>
				</g>
				<g>
					<path class="st6" d="M275.96,191.87l54.84-14.7c-2.98-11.05-7.41-21.79-13.29-31.96c-5.88-10.18-12.96-19.38-21.03-27.49
						l-40.15,40.15C265.72,167.29,272.5,179.03,275.96,191.87z"/>
				</g>
				<g>
					<path class="st7" d="M276,231.14l54.76,14.67c6.12-22.85,6.05-46.39,0.05-68.64l-54.84,14.7
						C279.33,204.33,279.57,217.8,276,231.14z"/>
				</g>
				<g>
					<path class="st8" d="M256.34,157.87l40.15-40.15c-16.27-16.32-36.61-28.15-59.46-34.28l-14.67,54.76
						C235.68,141.78,247.23,148.73,256.34,157.87z"/>
				</g>
				<g>
					<path class="st9" d="M149.08,265.13l-40.15,40.15c16.27,16.32,36.61,28.15,59.46,34.28l14.67-54.76
						C169.73,281.22,158.19,274.27,149.08,265.13z"/>
				</g>
				<g>
					<path class="st10" d="M129.45,231.13l-54.84,14.69c2.98,11.05,7.41,21.79,13.29,31.96c5.88,10.18,12.96,19.38,21.03,27.49
						l40.15-40.15C139.7,255.71,132.91,243.96,129.45,231.13z"/>
				</g>
				<g>
					<path class="st11" d="M129.42,191.86l-54.76-14.67c-6.12,22.85-6.05,46.39-0.05,68.64l54.84-14.69
						C126.09,218.67,125.84,205.2,129.42,191.86z"/>
				</g>
			</g>
			<g>
				<path d="M257.49,107.79c-0.8-0.57-0.94-0.86-0.6-1.48c0.24-0.41,0.64-1.11,2.84-4.58c-0.33,2.45-0.74,5.02-1.07,7.29l0.37,0.22
					c1.93-1.46,4.06-3.09,6-4.57l-2.54,4.42c-0.59,1.02-0.69,1.07-1.6,0.66l-0.24,0.42l3.44,1.99l0.24-0.42
					c-0.85-0.65-0.86-0.73-0.29-1.75l2.36-4.3c0.5-0.92,0.65-0.95,1.61-0.52l0.24-0.42l-2.39-1.38l-5.08,3.73l0.7-6.26l-2.45-1.41
					l-0.24,0.42c0.92,0.65,0.82,1,0.48,1.53c-2.42,3.59-2.84,4.21-3.08,4.52c-0.48,0.63-0.85,0.58-1.53,0.27l-0.24,0.42l2.81,1.62
					L257.49,107.79z"/>
				<path d="M250.73,122.01c-0.85-0.6-1.07-0.84-0.42-1.42c0.32-0.29,0.72-0.62,1.05-0.9l2.21,1.28c-0.09,0.55-0.2,1.17-0.29,1.57
					c-0.12,0.58-0.19,0.7-0.97,0.39l-0.24,0.42l3.28,1.9l0.24-0.42c-0.68-0.52-0.74-0.65-0.55-1.95c0.36-2.32,0.75-4.78,1.16-7.17
					l-0.6-0.21l-5.74,4.49c-0.93,0.73-1.17,0.73-1.94,0.41l-0.24,0.42l2.8,1.62L250.73,122.01z M254.2,117.36l-0.51,2.9l-1.8-1.04
					C252.65,118.56,253.4,117.98,254.2,117.36z"/>
				<path d="M243.82,134.68l0.95-1.65l0.22,0.14c0.36,0.21,0.48,0.37,0.47,0.77c-0.01,0.9-0.08,1.78,0.02,2.67
					c0.07,0.67,0.31,1.22,1.71,2.12c0.13,0.09,0.27,0.17,0.33,0.21l0.3-0.34c-0.26-0.3-0.34-0.46-0.43-0.91
					c-0.07-0.37-0.14-0.82-0.18-1.67c-0.04-0.72-0.06-1.71-0.03-2.15c0.92,0.14,1.89-0.01,2.47-1.02c0.41-0.7,0.39-1.38,0.11-1.94
					c-0.28-0.58-0.79-1.03-1.8-1.61l-3.28-1.9l-0.24,0.42c0.81,0.56,0.85,0.75,0.33,1.64l-2.5,4.34c-0.53,0.92-0.68,0.95-1.6,0.54
					l-0.24,0.42l3.46,2l0.24-0.42C243.36,135.75,243.29,135.6,243.82,134.68z M246.61,129.86c0.13-0.23,0.23-0.35,0.35-0.37
					c0.11-0.03,0.28,0.01,0.59,0.19c0.63,0.37,1.08,1.2,0.38,2.4c-0.33,0.58-0.74,0.92-1.3,1.02c-0.37,0.07-0.79-0.07-1.28-0.35
					l-0.31-0.18L246.61,129.86z"/>
				<path d="M201.74,94.29c-1.18-0.08-1.26-0.17-1.26-1.37v-2.04h1.4c0.72,0,0.92,0.22,1.06,1.11h0.5v-2.9h-0.48
					c-0.2,0.92-0.3,1.11-1.07,1.11h-1.4v-2.85c0-0.44,0.05-0.47,0.5-0.47h0.98c0.63,0,0.8,0.05,1.07,0.34
					c0.22,0.25,0.43,0.73,0.58,1.23l0.51-0.08c-0.06-0.77-0.13-1.9-0.14-2.12c-0.21,0.01-0.86,0.03-1.99,0.03h-4.43v0.48
					c0.99,0.08,1.11,0.18,1.11,1.35v4.81c0,1.2-0.12,1.28-1.11,1.37v0.48h4.18V94.29z"/>
				<path d="M204.48,108.25l-0.48-0.12c-0.21,0.44-0.47,0.93-0.8,1.31c-0.29,0.35-0.48,0.44-1.22,0.44h-0.93
					c-0.81-0.01-0.84-0.29-0.84-1.19v-2.25h1.27c0.76,0,0.86,0.16,1.07,1.12h0.51v-2.92h-0.51c-0.2,0.93-0.33,1.12-1.06,1.12h-1.28
					v-2.73c0-0.44,0.05-0.47,0.55-0.47h0.85c0.67,0,0.84,0.08,1.07,0.34c0.22,0.24,0.44,0.77,0.56,1.22l0.51-0.07
					c-0.05-0.81-0.12-1.88-0.13-2.12c-0.18,0.01-0.64,0.03-2.01,0.03h-4.25v0.48c0.89,0.08,1.05,0.16,1.05,1.27v5
					c0,1.1-0.08,1.16-1.27,1.28v0.47h6.79C204.05,110.1,204.42,108.6,204.48,108.25z"/>
				<path d="M203.2,125.62c0.75-0.42,1.26-1.18,1.26-1.99c0-1.24-0.97-1.9-2.34-2.14c0.85-0.17,1.87-0.82,1.87-1.91
					c0-0.64-0.31-1.14-0.8-1.45c-0.52-0.33-1.15-0.46-2.14-0.46h-3.98v0.48c0.93,0.07,1.1,0.18,1.1,1.28v4.98
					c0,1.1-0.1,1.16-1.11,1.27v0.48h3.66C201.69,126.17,202.54,125.99,203.2,125.62z M199.95,118.83c0-0.27-0.01-0.39,0.13-0.48
					c0.1-0.07,0.3-0.1,0.61-0.1c0.72,0,1.46,0.43,1.46,1.57c0,0.97-0.46,1.5-1.7,1.5h-0.51V118.83z M199.95,124.39v-2.51h0.46
					c1.46,0,2.11,0.6,2.11,1.87c0,1.22-0.71,1.84-1.43,1.86C200.38,125.62,199.95,125.33,199.95,124.39z"/>
				<path d="M141.88,111.89c0.29,0.79,0.19,1.37-0.28,2.02l0.43,0.33c0.38-0.37,0.76-0.89,1.01-1.5c0.59-1.47,0.08-2.64-0.68-3.96
					l-2.16-3.74c-0.55-0.95-0.49-1.08,0.25-1.63l-0.24-0.42l-3.45,1.99l0.24,0.42c0.92-0.42,1.08-0.41,1.63,0.54l2.13,3.69
					C141.23,110.48,141.62,111.19,141.88,111.89z"/>
				<path d="M146.43,126.78l0.24,0.42l2.8-1.62l-0.24-0.42c-0.94,0.44-1.27,0.5-1.44-0.35c-0.09-0.42-0.18-0.94-0.26-1.36l2.21-1.27
					c0.43,0.35,0.91,0.76,1.22,1.03c0.44,0.4,0.51,0.52-0.14,1.03l0.24,0.42l3.28-1.9l-0.24-0.42c-0.79,0.33-0.94,0.31-1.96-0.5
					c-1.83-1.47-3.76-3.04-5.62-4.59l-0.48,0.42l1.02,7.21C147.21,126.07,147.09,126.28,146.43,126.78z M149.19,121.73l-1.8,1.04
					c-0.19-0.99-0.31-1.93-0.46-2.94L149.19,121.73z"/>
				<path d="M157.26,131c0.28,0.4,0.5,0.77,1.07,1.75l1.18,2.04l-7.21-2.53l-2.21,1.28l0.24,0.42c0.5-0.23,0.79-0.35,1.16-0.19
					c0.38,0.17,0.55,0.41,0.77,0.78l1.55,2.68c0.57,0.99,0.78,1.41,0.97,1.84c0.24,0.57,0.05,0.9-0.56,1.33l0.24,0.42l2.81-1.62
					l-0.24-0.42c-0.86,0.44-1.25,0.31-1.58-0.16c-0.22-0.31-0.5-0.74-1.07-1.72l-1.48-2.56l7.99,2.94l0.63-0.37l-2.6-4.51
					c-0.57-0.98-0.76-1.39-0.98-1.85c-0.26-0.53-0.13-0.8,0.51-1.29l-0.24-0.42l-2.8,1.62l0.24,0.42
					C156.62,130.4,156.94,130.53,157.26,131z"/>
				<path d="M97.43,156.86c0.94,0.54,0.98,0.7,0.55,1.6l0.42,0.24l1.8-3.11c0.75-1.29,1.05-2.55,0.9-3.75
					c-0.15-1.25-0.84-2.37-2.14-3.12c-1.14-0.66-2.19-0.68-3.06-0.41c-1.1,0.33-2.02,1.22-2.85,2.67l-2.01,3.48l0.42,0.24
					c0.55-0.8,0.71-0.87,1.67-0.32L97.43,156.86z M93.46,151.4c0.44-0.76,0.94-1.26,1.69-1.46c0.79-0.24,1.9,0.01,2.97,0.63
					c2.14,1.24,2.7,2.73,1.81,4.26c-0.48,0.83-0.87,0.87-1.67,0.41l-4.48-2.59c-0.33-0.19-0.51-0.32-0.55-0.48
					C93.2,152.06,93.21,151.82,93.46,151.4z"/>
				<path d="M111.55,163.83c0.95,0.55,0.97,0.65,0.48,1.74l0.41,0.24l3.39-5.88c-0.26-0.28-1.38-1.35-1.65-1.59l-0.34,0.36
					c0.28,0.4,0.57,0.87,0.73,1.34c0.16,0.43,0.14,0.64-0.22,1.28l-0.46,0.8c-0.42,0.7-0.67,0.58-1.45,0.13l-1.95-1.12l0.63-1.1
					c0.38-0.66,0.57-0.67,1.51-0.37l0.25-0.44l-2.53-1.46l-0.25,0.44c0.71,0.63,0.81,0.84,0.44,1.48l-0.64,1.11l-2.37-1.37
					c-0.38-0.22-0.38-0.28-0.13-0.71l0.43-0.74c0.33-0.58,0.49-0.69,0.83-0.76c0.32-0.07,0.89,0,1.33,0.12l0.2-0.47
					c-0.73-0.36-1.69-0.84-1.9-0.95c-0.08,0.17-0.3,0.57-0.98,1.76l-2.12,3.68l0.42,0.24c0.51-0.73,0.66-0.83,1.62-0.27
					L111.55,163.83z"/>
				<path d="M122.23,171.94c1.8,1.04,4.49,0.91,6.25-2.13c0.5-0.86,0.81-1.92,0.91-2.25c-0.29-0.41-0.98-1.2-1.46-1.69l-0.42,0.33
					c0.89,1.33,1.02,2.25,0.48,3.2c-0.9,1.55-2.92,1.81-4.99,0.61c-1.78-1.03-2.67-2.64-1.72-4.29c0.18-0.31,0.46-0.69,0.73-0.89
					c0.58-0.46,1.2-0.56,2.22-0.29l0.18-0.5c-0.54-0.21-1.43-0.61-1.99-0.86c-0.2,0.26-0.94,1-1.51,1.98
					C119.33,167.88,119.89,170.58,122.23,171.94z"/>
				<path d="M78.83,209.81c-0.59-0.04-0.76-0.29-0.86-1.09h-0.48v3.23h0.48c0.07-1.09,0.34-1.29,0.9-1.33
					c0.48-0.04,0.92-0.05,2.05-0.05h2.35l-5.79,4.98v2.55h0.48c0.05-0.55,0.09-0.86,0.42-1.1c0.34-0.25,0.63-0.27,1.06-0.27h3.1
					c1.14,0,1.61,0.03,2.08,0.08c0.61,0.08,0.81,0.41,0.88,1.15h0.48v-3.24H85.5c-0.05,0.97-0.35,1.24-0.93,1.29
					c-0.38,0.04-0.89,0.07-2.03,0.07h-2.96l6.54-5.45v-0.73h-5.2C79.78,209.89,79.34,209.85,78.83,209.81z"/>
				<path d="M101.87,213.43c0-2.47-1.75-4.46-4.54-4.46c-2.58,0-4.34,1.97-4.34,4.39c0,2.98,2.21,4.58,4.45,4.58
					C99.96,217.94,101.87,216.05,101.87,213.43z M93.57,213.56c0-1.52,1.54-2.54,4.13-2.54c2.39,0,3.6,0.97,3.6,2.21
					c0,1.77-1.9,2.64-4.11,2.64C94.88,215.88,93.57,214.9,93.57,213.56z"/>
				<path d="M109.36,208.8h-0.48v3.11h0.48c0.12-1.1,0.31-1.19,1.22-0.86c0.85,0.3,2.63,1.01,4.5,1.79
					c-1.15,0.44-3.84,1.43-4.94,1.83c-0.55,0.21-0.64,0.21-0.77-0.75l-0.48-0.01v3.99h0.48c0.08-0.85,0.29-1.02,1.27-1.43
					c1.39-0.55,5.87-2.25,6.89-2.62v-0.72c-2.46-0.97-5.7-2.31-6.71-2.72C109.57,209.93,109.45,209.67,109.36,208.8z"/>
				<path d="M96.6,269.84c-2.23,1.29-2.77,3.88-1.56,5.98c1.49,2.58,4.2,2.86,6.14,1.74c2.19-1.26,2.89-3.86,1.58-6.12
					C101.52,269.3,99.01,268.45,96.6,269.84z M99.92,275.9c-2,1.16-3.63,0.96-4.29-0.19c-0.76-1.31,0.07-2.97,2.31-4.26
					c2.07-1.2,3.6-0.96,4.22,0.12C103.04,273.08,101.84,274.79,99.92,275.9z"/>
				<path d="M114.39,260.88c-0.5,0.05-1.53,0.25-2.19,0.42l0.08,0.53c1.6-0.11,2.46,0.24,3.01,1.19c0.9,1.55,0.11,3.43-1.97,4.62
					c-1.78,1.03-3.62,0.99-4.57-0.65c-0.18-0.31-0.37-0.74-0.41-1.08c-0.11-0.74,0.11-1.32,0.86-2.07l-0.34-0.41
					c-0.45,0.37-1.24,0.93-1.74,1.29c0.13,0.3,0.4,1.31,0.96,2.3c1.57,2.72,4.19,3.59,6.53,2.24c1.8-1.04,3.03-3.43,1.28-6.47
					C115.39,261.93,114.63,261.13,114.39,260.88z"/>
				<path d="M128.26,254.18c0.5,1.05,0.5,1.21-0.45,1.76l-5.32,3.07l-0.42-0.72c-0.39-0.67-0.35-0.81-0.23-1.15
					c0.09-0.2,0.38-0.7,0.83-1.13l-0.28-0.41c-0.7,0.48-1.67,1.1-2.14,1.39l0.19,0.33c0.33,0.07,0.49,0.19,0.66,0.49l2.62,4.53
					c0.2,0.34,0.25,0.49,0.09,0.81l0.2,0.34c0.56-0.29,1.49-0.72,2.36-1.12l-0.25-0.43c-0.54,0.11-1.04,0.19-1.34,0.16
					c-0.4-0.06-0.6-0.18-0.97-0.81l-0.4-0.69l5.32-3.07c0.95-0.55,1.08-0.49,1.71,0.43l0.42-0.24l-2.17-3.76L128.26,254.18z"/>
				<path d="M146.38,313.54c-1.62-0.93-3.29-0.6-4.06,0.74c-0.65,1.12-0.22,2.15,0.65,3.45c0.71,1.07,0.91,1.69,0.55,2.31
					c-0.37,0.63-1.06,0.85-1.72,0.47c-1.04-0.6-0.88-1.61-0.69-2.47l-0.49-0.15c-0.32,0.77-0.58,1.4-0.78,1.85
					c0.23,0.18,0.72,0.69,1.5,1.14c1.7,0.98,3.17,0.58,3.86-0.61c0.68-1.18,0.24-2.19-0.57-3.5c-0.66-1.06-0.84-1.68-0.46-2.34
					c0.42-0.72,1.08-0.91,1.78-0.51c1.11,0.64,1.03,2.24,0.85,3.08l0.5,0.15c0.23-0.58,0.72-1.87,0.8-2.17
					C147.64,314.52,147.1,313.96,146.38,313.54z"/>
				<path d="M149.55,300.03l0.36,0.34c0.4-0.28,0.87-0.57,1.34-0.73c0.43-0.16,0.64-0.14,1.28,0.22l0.8,0.46
					c0.7,0.42,0.58,0.67,0.13,1.45l-1.12,1.95l-1.1-0.63c-0.66-0.38-0.67-0.57-0.37-1.51l-0.44-0.25l-1.46,2.53l0.44,0.25
					c0.63-0.71,0.84-0.81,1.48-0.44l1.11,0.64l-1.37,2.37c-0.22,0.38-0.28,0.38-0.71,0.13l-0.74-0.43
					c-0.58-0.33-0.69-0.49-0.76-0.83c-0.07-0.32,0-0.89,0.12-1.33l-0.47-0.2c-0.36,0.73-0.84,1.69-0.95,1.9
					c0.17,0.08,0.57,0.3,1.76,0.98l3.68,2.12l0.24-0.42c-0.73-0.51-0.83-0.66-0.27-1.62l2.5-4.33c0.55-0.95,0.65-0.97,1.74-0.48
					l0.24-0.41l-5.88-3.39C150.85,298.64,149.78,299.76,149.55,300.03z"/>
				<path d="M160.91,286.46c0.93,0.66,0.99,0.75,0.44,1.7l-0.89,1.54l-0.56-0.55c-0.07-0.06-0.21-0.15-0.33-0.22
					c-1.22-0.69-3.01-0.8-3.96,0.84c-0.45,0.78-0.45,1.51-0.1,2.21c0.29,0.57,0.88,1.12,1.77,1.64l3.22,1.86l0.24-0.42
					c-0.82-0.55-0.87-0.71-0.32-1.67l2.5-4.33c0.55-0.95,0.68-0.92,1.59-0.53l0.24-0.42l-3.6-2.08L160.91,286.46z M158.5,293.09
					c-0.1,0.17-0.19,0.27-0.3,0.29c-0.1,0.02-0.27,0-0.51-0.14c-0.74-0.42-1.18-1.24-0.45-2.51c0.86-1.49,1.89-1.31,2.41-1.01
					c0.24,0.14,0.44,0.31,0.54,0.46L158.5,293.09z"/>
				<path d="M205.86,328.71c1.03,0.09,1.35,0.2,1.07,1.02c-0.13,0.41-0.31,0.9-0.46,1.31h-2.55c-0.2-0.52-0.41-1.11-0.54-1.5
					c-0.18-0.56-0.18-0.71,0.64-0.82v-0.48h-3.79v0.48c0.85,0.1,0.97,0.2,1.45,1.41c0.85,2.18,1.74,4.51,2.58,6.79l0.63-0.12
					l2.72-6.76c0.44-1.1,0.65-1.22,1.48-1.32v-0.48h-3.23V328.71z M205.18,334.48l-1.01-2.77h2.08
					C205.93,332.66,205.56,333.54,205.18,334.48z"/>
				<path d="M208.02,319.16v-3.31c0-1.46-0.37-2.26-1.12-2.84c-0.61-0.5-1.48-0.68-2.34-0.68c-0.93,0-1.86,0.27-2.46,0.9
					c-0.75,0.78-0.93,1.92-0.93,3.05V318c0,0.92-0.03,1.36-0.07,1.75c-0.05,0.47-0.27,0.72-1.11,0.8v0.48h3.24v-0.48
					c-0.92-0.05-1.28-0.18-1.33-0.78c-0.03-0.39-0.07-0.86-0.07-1.77v-1.63c0-1.96,0.68-3.11,2.24-3.11c1.4,0,2.12,0.97,2.12,2.43
					v3.48c0,1.2-0.12,1.29-1.1,1.39v0.48h4.04v-0.48C208.14,320.46,208.02,320.36,208.02,319.16z"/>
				<path d="M200.96,297.07c0.07,0.35,0.08,0.8,0.08,1.27v1.01c0,0.89-0.09,0.94-0.84,1.07v0.48h3.91v-0.48
					c-1.1-0.13-1.28-0.22-1.28-1.14v-1.15c0-0.41,0.1-0.63,0.3-0.75c0.24-0.14,0.58-0.18,0.84-0.18c2.14,0,2.96,1.82,2.96,4.12
					c0,2.25-1.19,3.62-2.77,3.62c-0.33,0-0.81-0.05-1.11-0.16c-0.81-0.27-1.29-0.84-1.61-1.95l-0.51,0.09
					c0.09,0.72,0.2,1.71,0.22,2.29c0.43,0.04,1.58,0.3,2.64,0.3c2.79,0,5.18-1.48,5.18-4.42c0-2.59-1.77-4.46-4.84-4.46
					C203.06,296.64,201.63,296.95,200.96,297.07z"/>
				<path d="M266.8,317.06l-2.13-3.69c-0.48-0.84-0.87-1.55-1.13-2.25c-0.29-0.79-0.19-1.37,0.28-2.02l-0.43-0.33
					c-0.38,0.37-0.76,0.89-1.01,1.5c-0.59,1.47-0.08,2.64,0.68,3.95l2.16,3.74c0.55,0.95,0.49,1.08-0.25,1.63l0.24,0.42l3.45-1.99
					l-0.24-0.42C267.51,318.02,267.35,318.01,266.8,317.06z"/>
				<path d="M262.79,302.72c-0.91,0.42-1.05,0.4-1.66-0.64l-1.65-2.87c-0.73-1.27-1.45-1.78-2.39-1.9
					c-0.78-0.12-1.62,0.15-2.37,0.58c-0.8,0.46-1.47,1.17-1.68,2.01c-0.25,1.05,0.16,2.13,0.72,3.1l0.86,1.48
					c0.46,0.79,0.66,1.19,0.82,1.55c0.19,0.43,0.12,0.76-0.56,1.25l0.24,0.42l2.81-1.62l-0.24-0.42c-0.82,0.41-1.2,0.48-1.55-0.01
					c-0.22-0.33-0.49-0.71-0.94-1.5l-0.82-1.42c-0.98-1.7-0.97-3.04,0.38-3.81c1.21-0.7,2.32-0.22,3.05,1.05l1.74,3.01
					c0.6,1.04,0.55,1.18-0.26,1.75l0.24,0.42l3.5-2.02L262.79,302.72z"/>
				<path d="M253.94,289.71c-0.89,0.42-1.05,0.4-1.6-0.55l-2.49-4.31c-0.55-0.95-0.5-1.08,0.45-1.73l-0.24-0.42l-5.62,3.24
					c0.08,0.36,0.45,1.75,0.64,2.29l0.51-0.11c-0.06-0.58-0.05-1.24,0.03-1.59c0.09-0.46,0.19-0.7,0.83-1.07
					c0.04-0.03,0.57-0.33,0.59-0.33c0.63-0.35,0.82-0.08,1.17,0.54l2.54,4.39c0.55,0.95,0.48,1.1-0.36,1.69l0.24,0.42l3.53-2.04
					L253.94,289.71z"/>
				<path d="M310.99,270.87l-3.69-2.13c-0.84-0.48-1.53-0.91-2.1-1.38c-0.64-0.54-0.85-1.09-0.77-1.89l-0.54-0.07
					c-0.14,0.51-0.21,1.15-0.12,1.8c0.23,1.57,1.25,2.33,2.57,3.08l3.74,2.16c0.95,0.55,0.96,0.69,0.59,1.54l0.42,0.24l1.99-3.45
					l-0.42-0.24C312.09,271.35,311.94,271.42,310.99,270.87z"/>
				<path d="M298.6,260.73l-2.87-1.65c-1.27-0.73-2.14-0.81-3.02-0.44c-0.74,0.28-1.33,0.94-1.76,1.69
					c-0.46,0.8-0.69,1.75-0.45,2.58c0.31,1.04,1.2,1.77,2.17,2.33l1.48,0.86c0.79,0.46,1.16,0.7,1.48,0.93
					c0.38,0.28,0.49,0.6,0.13,1.36l0.42,0.24l1.62-2.81l-0.42-0.24c-0.5,0.77-0.8,1.02-1.35,0.76c-0.35-0.17-0.78-0.38-1.56-0.83
					l-1.42-0.82c-1.7-0.98-2.36-2.15-1.58-3.49c0.7-1.21,1.9-1.35,3.17-0.62l3.01,1.74c1.04,0.6,1.06,0.75,0.65,1.65l0.42,0.24
					l2.02-3.5l-0.42-0.24C299.78,261.27,299.64,261.33,298.6,260.73z"/>
				<path d="M285.93,253.2c-0.42,0.05-0.68-0.08-1.05-0.29l-2.68-1.55c-0.99-0.57-1.38-0.83-1.76-1.11
					c-0.49-0.38-0.5-0.76-0.18-1.43l-0.42-0.24l-1.62,2.81l0.42,0.24c0.53-0.81,0.93-0.9,1.45-0.66c0.35,0.16,0.8,0.39,1.79,0.96
					l2.56,1.48l-8.39,1.45l-0.37,0.63l4.51,2.6c0.98,0.57,1.35,0.83,1.77,1.11c0.49,0.33,0.51,0.63,0.21,1.37l0.42,0.24l1.61-2.8
					l-0.42-0.24c-0.6,0.91-0.94,0.95-1.45,0.7c-0.44-0.21-0.82-0.41-1.8-0.98l-2.04-1.18l7.51-1.42l1.27-2.21l-0.42-0.24
					C286.52,252.91,286.33,253.16,285.93,253.2z"/>
				<path d="M327.94,204.27h-0.48c-0.11,1.12-0.46,1.22-1.09,1.18c-4.32-0.3-5.06-0.35-5.45-0.41c-0.79-0.1-0.93-0.44-0.99-1.19
					h-0.48v3.24h0.48c0.09-0.98,0.28-1.24,0.98-1.26c0.47,0,1.28,0,5.39,0.17c-2.29,0.94-4.72,1.87-6.85,2.72v0.43
					c2.22,0.94,4.71,1.97,6.96,2.92l-5.1,0.01c-1.18,0-1.27-0.07-1.37-1.06h-0.48V215h0.48c0.14-1.06,0.2-1.11,1.37-1.12l4.9-0.1
					c1.05-0.03,1.15,0.09,1.26,1.14h0.48v-2.76l-5.77-2.54l5.77-2.52V204.27z"/>
				<path d="M304.22,205.12h-0.48v3.23h0.48c0.09-1.03,0.2-1.35,1.02-1.07c0.41,0.13,0.9,0.31,1.31,0.46v2.55
					c-0.52,0.2-1.11,0.41-1.5,0.54c-0.56,0.18-0.71,0.18-0.82-0.64h-0.48v3.79h0.48c0.1-0.85,0.2-0.97,1.41-1.45
					c2.18-0.85,4.51-1.74,6.79-2.58l-0.12-0.63l-6.76-2.72C304.44,206.15,304.33,205.94,304.22,205.12z M307.22,207.96
					c0.96,0.33,1.83,0.69,2.77,1.07l-2.77,1.01V207.96z"/>
				<path d="M292.15,210.76c1.31,0.64,2.03,1.05,2.84,1.52c0.8,0.47,0.98,0.77,1.07,1.61h0.48v-3.05h-0.48
					c-0.12,0.94-0.29,1.05-0.81,0.8c-0.8-0.37-2.05-0.99-2.79-1.39c0.95-0.5,2-1.06,2.85-1.49c0.46-0.22,0.63-0.25,0.75,0.63h0.48
					v-3.83h-0.48c-0.08,0.76-0.25,0.95-1.1,1.44c-1.37,0.78-2.25,1.27-3.02,1.65c-0.18,0.09-0.31,0.14-0.6,0.14h-1.5
					c-1.14,0-1.18-0.09-1.31-1.12h-0.48v4.13h0.48c0.13-1.07,0.17-1.18,1.31-1.18h1.62C291.78,210.62,291.94,210.66,292.15,210.76z"
					/>
				<path d="M303.56,151.74l-0.42,0.24l1.9,3.28l0.42-0.24c-0.33-0.79-0.31-0.94,0.5-1.96c1.47-1.83,3.04-3.76,4.59-5.62l-0.42-0.49
					l-7.22,1.03c-1.17,0.16-1.38,0.04-1.88-0.62l-0.42,0.24l1.61,2.8l0.42-0.24c-0.44-0.94-0.5-1.26,0.35-1.44
					c0.42-0.09,0.94-0.18,1.36-0.26l1.27,2.21c-0.35,0.43-0.76,0.91-1.03,1.22C304.2,152.33,304.07,152.4,303.56,151.74z
					 M305.04,148.32c0.99-0.19,1.93-0.32,2.94-0.46l-1.9,2.26L305.04,148.32z"/>
				<path d="M289.99,159.63c-0.48-1.04-0.48-1.14,0.47-1.69l1.54-0.89l0.21,0.76c0.03,0.08,0.11,0.24,0.17,0.35
					c0.71,1.21,2.21,2.2,3.85,1.25c0.78-0.45,1.14-1.08,1.19-1.86c0.04-0.64-0.2-1.41-0.71-2.31l-1.86-3.22l-0.42,0.24
					c0.43,0.88,0.4,1.05-0.55,1.6l-4.33,2.5c-0.95,0.55-1.05,0.46-1.64-0.33l-0.42,0.24l2.08,3.6L289.99,159.63z M295.39,155.1
					c0.17-0.1,0.3-0.14,0.41-0.1c0.1,0.04,0.23,0.14,0.37,0.38c0.43,0.74,0.4,1.67-0.86,2.4c-1.49,0.86-2.29,0.19-2.59-0.33
					c-0.14-0.24-0.22-0.49-0.23-0.67L295.39,155.1z"/>
				<path d="M276.19,167.13c-0.39-0.91-0.37-1.07,0.54-1.6l1.65-0.95l0.12,0.23c0.21,0.36,0.23,0.56,0.03,0.91
					c-0.46,0.78-0.96,1.5-1.32,2.32c-0.28,0.61-0.34,1.21,0.42,2.69c0.07,0.14,0.15,0.28,0.19,0.35l0.43-0.14
					c-0.08-0.39-0.06-0.57,0.09-1c0.12-0.36,0.29-0.79,0.68-1.54c0.32-0.64,0.81-1.51,1.05-1.87c0.73,0.58,1.64,0.94,2.65,0.36
					c0.7-0.41,1.02-1,1.07-1.63c0.05-0.65-0.17-1.29-0.75-2.3l-1.9-3.28l-0.42,0.24c0.42,0.89,0.36,1.07-0.53,1.59l-4.34,2.5
					c-0.92,0.53-1.07,0.48-1.65-0.33l-0.42,0.24l2,3.47L276.19,167.13z M281.55,162.74c0.23-0.13,0.38-0.19,0.49-0.15
					c0.11,0.03,0.24,0.15,0.41,0.46c0.37,0.63,0.33,1.57-0.87,2.27c-0.58,0.33-1.1,0.42-1.63,0.23c-0.36-0.12-0.65-0.45-0.94-0.94
					l-0.18-0.31L281.55,162.74z"/>
			</g>
		</g>
	</g>
</g>
<g>
</g>
</svg>
