<?xml version="1.0" encoding="UTF-8"?>
<svg id="Layer_2" data-name="Layer 2" xmlns="http://www.w3.org/2000/svg" viewBox="0 0 803.48 826.91">
  <defs>
    <style>
      .cls-1 {
        fill: #0e180b;
        stroke-width: 0px;
      }
    </style>
  </defs>
  <g id="Layer_2-2" data-name="Layer 2">
    <g>
      <path class="cls-1" d="m471.6,632.01c-3.73-4.17-7.68-8.15-11.82-11.9h.69c-3.83-2.49-7.76-5.07-10.38-8.81s-3.65-8.97-1.31-12.89c1.29-2.15,3.4-3.64,5.45-5.08,4.82-3.37,9.65-6.74,14.47-10.11,3.49-2.44,7.01-4.9,10.89-6.66,4.48-2.03,9.33-3.09,13.89-4.92,10.62-4.26,19.11-12.44,27.32-20.43,4.11-4,8.45-8.45,9.17-14.14l-.48,1.15c.62-.85.84-1.98.59-3-.51-.01-1.03-.02-1.54-.04h1.26s-2.35.37-2.35.37c1.2-.04,2.4-.07,3.61-.11l-1.9.52-.21-.76c-4.01-.13-8.02-.26-12.03-.39-2.29-.07-4.66-.16-6.73-1.15-2.18-1.04-3.79-2.96-5.45-4.72-5.55-5.91-12.32-10.59-19.48-14.39-25.42-13.52-56.46-16.06-83.74-6.85-4.82,1.63-9.53,3.6-14.41,5.05-2.99.88-6.06,1.57-8.88,2.92-4.42,2.12-8.6,5.92-13.44,5.2-3.23-.48-5.8-2.91-7.95-5.36-7.91-8.98-13.55-19.94-16.25-31.6l.09-.24c-5.61-8.92-11.22-17.84-16.83-26.77-7.59-12.08-15.21-24.19-21.19-37.15-12.88-27.93-17.75-58.85-28.25-87.75-2.46-6.77-5.24-13.45-7.04-20.42-3.56-13.73,24.63,78.07,20.27,64.57l-28.76-107.64c-8.23-14.68-6.79-32.62-9.69-49.19-1.22-6.96-3.23-13.75-5.24-20.52-13.57-45.74-27.33-91.93-50.8-133.47-8.65-15.31-18.62-29.99-25.03-46.36-2.36-6.03-4.29-12.38-8.26-17.5l-2.08.36c-4.3,2.09-6.69,6.76-8.13,11.32s-2.66,9.18-4.76,13.47c-1.24,2.53-1.2,5.89-2.24,8.53-1.96,4.97-2.29,9.16-2.41,14.5-.2,8.93-6.3,16.91-6.56,25.83l-.03-.33c-3.48,13.97-6.09,25.22-7.67,39.53-.4,3.66-.78,7.44-2.55,10.67-3.23,5.87-10.16,8.45-16.54,10.47-4.93,1.56-10.1,3.21-13.66,6.96-1.88,1.98-3.18,4.42-4.45,6.83-4.28,8.08-8.57,16.16-12.85,24.23l-4.28,13.31c-1.25,6.92,2.54-6.07-.15.42-6.14,14.82-5.55,31.47-4.24,47.45,2.95,36.05,9.05,71.84,18.21,106.83l-1.81-11.87c.68,6.27,1.37,12.54,2.05,18.81.37,3.35.73,6.73.35,10.08-.7,6.15-3.89,11.81-7.98,16.46s-9.08,8.4-14.03,12.13l2.25-.07c-5.14,1.04-9.24,5.2-11.39,9.98s-2.6,10.15-2.65,15.39c-.33,36.36,17.28,70.17,34.43,102.23,4.49,8.39,8.98,16.78,14.05,24.82,13.7,21.74,31.63,40.81,52.48,55.83,4.67,3.36,9.57,6.61,13.07,11.18.78,1.02,1.51,2.2,1.43,3.47s-1.34,2.53-2.55,2.13l-.7-.18c-31.63-2.48-63.44-2.62-95.09-.4-3.46.24-7.01.54-10.15,2.01-4.82,2.26-8.29,2.59-13.57,3.29-4.77.64-9.77,2.16-14.4,3.46-3.8,1.07-6.29,4.78-9.93,6.31-1.6.67-3.35.88-5.04,1.32-8.79,2.26-15.32,11.27-14.72,20.33.31,4.73,2.31,9.17,4.36,13.45,1.54,3.21,3.14,6.41,5.18,9.34,6.52,9.34,17.09,15.29,23.47,24.72,2.52,3.73,4.41,8.03,7.89,10.89l1.29,1.37c-5.22,7.98-10.57,16.27-12.09,25.69-2.08,12.86,3.96,26.68,14.81,33.88,3.53,2.35,7.76,4.3,9.5,8.17,1.68,3.73.57,8.36,2.57,11.93,1.11,1.99,3.05,3.37,4.98,4.56,5.56,3.43,11.72,5.89,18.11,7.26l-5.79-3.16c6.6,6.56,19.14,5.3,24.31-2.44.76-1.14,1.57-2.51,2.93-2.68,1.15-.14,2.18.67,3.05,1.43,2.17,1.89,4.5,4.05,4.82,6.91.23,2.03-.63,4.08-.32,6.1.31,2.03,1.74,3.69,3.1,5.22,2.77,3.12,5.55,6.24,8.32,9.37,1.04,1.17,2.09,2.35,3.43,3.15,1.42.85,3.08,1.2,4.72,1.39,7.75.89,15.6-1.77,22.12-6.06s11.88-10.09,16.92-16.06c17.21-20.41,31.41-43.34,49.99-62.51,3.24-3.35,6.63-6.59,9.42-10.33,1.99-2.67,3.66-5.57,5.59-8.29,4.17-5.88,9.56-10.89,15.74-14.62l.38-.25c7.03-.23,14.06-.26,21.09-.11l.2-.25c22.01,21.74,46.11,41.36,71.88,58.49,13.7,9.11,27.97,17.56,43.44,23.13,24.38,8.77,50.74,10.04,76.64,10.63,13.97.32,27.94.46,41.91.44,12.43-.02,25.02-.2,37.03-3.44,12.74-3.43,24.54-10.31,33.8-19.72l.8.72v-.36c-2.03-.21-4.11.03-6.04.69l7.47-.05c31.11,7.41,63.22,10.62,95.18,9.52,5.8-.2,11.62-.54,17.32-1.65,7.9-1.54,15.43-4.53,22.91-7.5,19.41-7.71,38.99-15.52,56.22-27.32,3.99-2.73,7.92-5.77,10.47-9.87l-.21-.61c6.58-2.23,12.66-5.92,17.66-10.73.97-.93,1.9-1.91,2.58-3.07,1.31-2.26,1.51-5.13.5-7.54l-1.06-.37c-8.58-5.14-18.91-6.24-28.86-7.2-25.97-2.5-52-4.85-77.7-9.34-33.95-5.93-67.13-15.53-100.23-25.12l2.58.1c-7.24-2.6-15.41-1.37-22.68-3.87-2.32-.8-4.49-1.96-6.69-3.02-6.1-2.94-12.52-5.17-18.9-7.43-30.34-10.75-60.6-22.62-87.4-40.44"/>
      <path class="cls-1" d="m472.66,630.95c-3.75-4.16-7.69-8.12-11.82-11.9l-1.06,2.56h.69c1.54,0,1.98-2,.76-2.8-5.06-3.3-10.88-7.07-12.03-13.48-1.32-7.36,5.96-10.82,11.06-14.38,4.62-3.23,9.17-6.59,13.91-9.63,5.1-3.27,10.56-5.06,16.26-6.97,9.38-3.15,17.19-8.79,24.45-15.4,6.39-5.83,14.98-12.44,16.55-21.47.33-1.93-2.16-2.57-2.89-.8l-.48,1.15c-.65,1.57,1.96,2.65,2.74,1.16.68-1.3.93-2.3.79-3.76-.08-.82-.62-1.48-1.5-1.5l-1.54-.04v3h1.26c-.13-.98-.27-1.96-.4-2.95l-2.35.37c-1.68.26-1.27,3,.4,2.95,1.2-.04,2.4-.07,3.61-.11l-.4-2.95-1.9.52,1.85,1.05-.21-.76c-.18-.65-.78-1.08-1.45-1.1-6.98-.22-16.18,1.21-21.49-4.04-4.64-4.59-9.14-8.86-14.65-12.42-10.86-7.02-23.25-11.82-35.92-14.35s-24.6-2.81-36.83-1.09c-13.44,1.89-26.35,6.86-39.14,11.2-5.6,1.9-11.73,8.28-17.84,5.73-3.19-1.33-5.65-4.69-7.72-7.33-2.23-2.85-4.24-5.86-6.02-9.02-3.28-5.84-5.32-11.94-7.24-18.32-1.64-5.45-6.32-10.97-9.41-15.88-7.81-12.42-15.89-24.72-22.91-37.6s-12.38-26.77-16.71-40.93c-4.72-15.45-8.5-31.18-13.37-46.58-2.38-7.54-5.24-14.89-7.9-22.33-1.12-3.14-1.7-6.9-3.1-9.89-.42-.89.17-1.17-.37.08l-1.69.69c-1.1-.46-.7-.99-.76-.39-.04.37.41,1.18.53,1.53.57,1.69,1.12,3.39,1.66,5.09,1.69,5.25,3.34,10.51,4.98,15.78,3.7,11.85,7.36,23.7,10.98,35.58.63,2.07,1.26,4.14,1.88,6.21.16.53.24,1.26.51,1.74.19.33.09,1.07.15.37l2.8-.76c.28.43-.32-1.1-.47-1.62-.51-1.77-.95-3.57-1.43-5.35l-6.12-22.89-16.03-59.99c-1.54-5.78-3.01-11.58-4.63-17.33-.83-2.95-2.48-5.51-3.53-8.41-3.31-9.14-3.95-18.94-4.85-28.53-1.81-19.29-7.83-37.47-13.43-55.92-5.83-19.25-11.96-38.43-19.13-57.23-7.91-20.75-17.14-40.97-28.36-60.15-5.58-9.54-11.46-18.93-16.45-28.8s-7.37-21.05-13.83-29.83c-.43-.59-.97-.82-1.69-.69-4.98.87-8.02,4.86-9.98,9.33-1.54,3.51-2.4,7.29-3.64,10.91-1.35,3.95-2.98,7.36-3.83,11.46-.76,3.67-2.27,7.03-2.79,10.78s-.24,7.62-1.02,11.36c-1.54,7.41-5.55,13.94-6.02,21.62h3l-.03-.33c-.16-1.58-2.51-2.16-2.95-.4-1.8,7.22-3.56,14.45-4.97,21.76s-2.01,14.62-3.21,21.91c-2.65,16.04-19.64,13.47-29.95,21.6-5.36,4.23-8.03,11.54-11.13,17.39-2.86,5.39-6.44,10.84-8.62,16.53-1.22,3.19-2.11,6.56-3.15,9.82-.58,1.81-1.56,3.94-1.2,5.88.09.46.58.97,1.05,1.05h.05c.74.14,1.25-.1,1.69-.68.7-.9,1.34-3.14,1.22-4.27-.08-.74-.43-1.16-1.1-1.45l-.05-.02c-.47-.2-1.13.04-1.46.39-2.69,2.79-3.54,8.56-4.37,12.19-1.44,6.27-2.01,12.73-2.08,19.15-.17,13.76,1.45,27.63,3.06,41.28,3.39,28.67,8.77,57.07,16.05,85,.5,1.91,3.18,1.06,2.89-.8l-1.81-11.87c-.25-1.65-3.13-1.28-2.95.4.6,5.49,1.2,10.97,1.8,16.46s1.37,10.68-.11,15.92c-2.97,10.51-12.23,17.54-20.55,23.8-1.09.82-.88,2.85.76,2.8l2.25-.07-.4-2.95c-16.96,4.27-15.93,26.44-14.5,39.98,1.87,17.82,7.57,34.93,14.72,51.29,7.55,17.25,16.55,33.94,25.69,50.39,8.66,15.58,18.77,30.16,30.94,43.2,6.06,6.49,12.54,12.58,19.4,18.21s14.39,9.84,20.44,15.9c1.2,1.2,5,4.51,2.44,5.93-.69.39-4.49-.39-5.4-.46-5.36-.38-10.73-.69-16.1-.94-9.94-.45-19.89-.68-29.83-.67s-20.43.26-30.64.76c-8,.39-17.09-.12-24.6,3.03-8.26,3.46-17.61,3.63-26.2,6.2-3.2.96-5.4,2.5-8.02,4.52-3.7,2.85-7.96,2.88-12.02,4.87-6.47,3.16-11.16,9.74-12.03,16.88-1.08,8.8,4.16,18.64,8.78,25.8,5.04,7.82,12.68,13.2,19.11,19.77,3.41,3.49,5.87,7.39,8.47,11.48,1.76,2.78,3.93,4.94,6.16,7.32l-.23-1.82c-5.97,9.13-12.14,18.85-12.67,30.08-.44,9.31,3.07,18.75,9.23,25.71,3.11,3.51,6.84,5.75,10.68,8.35,3.15,2.13,5.11,4.26,5.7,8.11.38,2.48.28,5.09,1.19,7.47,1.48,3.88,5.14,6.06,8.61,7.97,5.03,2.78,10.45,4.73,16.05,6,1.6.36,2.7-1.9,1.16-2.74l-5.79-3.16c-1.45-.79-3.11,1.17-1.82,2.36,4.76,4.37,11.5,5.75,17.67,3.81,2.83-.89,5.48-2.45,7.5-4.64,1.66-1.8,2-4.42,5.12-2.87,3.46,1.73,4.46,5.71,4.16,9.11s.54,5.58,2.63,8.18c3.29,4.08,6.89,8.46,10.74,12.02,5.91,5.48,16,3.68,22.8,1.01,16.96-6.68,28.39-24.07,38.96-38.05,12.74-16.85,25.22-33.49,39.86-48.76,7.41-7.73,11.96-17.58,20.24-24.52,1.65-1.39,4.28-3.92,6.48-4.6,2.43-.76,6.64-.09,9.16-.11,3.25-.02,6.49.06,9.73.05,1.08,0,2.14.28,2.88-.66h-2.12c15.74,15.5,32.49,29.94,50.17,43.19,17.84,13.36,36.62,26.44,57.13,35.36,20.35,8.85,42.33,12.11,64.34,13.36,23.61,1.35,47.44,1.57,71.08,1.16,12.23-.22,24.58-1.22,36.14-5.5,10.54-3.9,20.01-10.1,27.96-18.03h-2.12l.8.72c.94.85,2.57.29,2.56-1.06v-.36c0-.84-.69-1.46-1.5-1.5-2.28-.11-4.24.13-6.44.75-1.61.46-1.31,2.96.4,2.95,4.14-.03,7.62.05,11.67.96,8.19,1.83,16.44,3.38,24.73,4.63,16.2,2.45,32.57,3.82,48.95,4.05s32.5-.07,48.05-5.59c14.63-5.2,29.23-11.21,43.2-17.98,7.81-3.78,15.44-7.99,22.63-12.87,3.03-2.06,6.06-4.23,8.57-6.91,1.4-1.49,3.74-3.48,3-5.69l-1.05,1.85c6.78-2.41,13.17-6.05,18.33-11.12,2.96-2.9,6.68-9.75,2.42-13.12-4.7-3.71-12.61-5.22-18.34-6.17-7.9-1.32-15.95-1.83-23.91-2.6-36.24-3.5-71.96-8.34-107.33-17.17-19.56-4.88-38.92-10.49-58.27-16.1l-.4,2.95,2.58.1c1.75.07,1.96-2.44.4-2.95-5.64-1.83-11.48-1.74-17.28-2.62-6.17-.94-11.4-4.13-17.08-6.51-11.42-4.77-23.3-8.45-34.86-12.88-22.99-8.8-45.5-19.01-66.09-32.61-1.62-1.07-3.12,1.53-1.51,2.59,20.39,13.46,42.67,23.61,65.42,32.37,11.77,4.53,23.87,8.29,35.53,13.11,5.51,2.28,10.65,5.53,16.58,6.62s12.49.85,18.51,2.81l.4-2.95-2.58-.1c-1.72-.07-2,2.48-.4,2.95,31.05,8.99,62.17,18.01,93.97,23.99,15.3,2.88,30.73,4.96,46.2,6.69s32.12,2.56,47.99,4.97c3.81.58,7.62,1.36,11.27,2.63,1.71.6,7.21,2.46,7.96,3.81,2.46,4.39-5.41,10.18-8.32,12.25-3.69,2.63-7.7,4.64-11.96,6.16-.73.26-1.32,1.03-1.05,1.85.37,1.09-4.56,5.03-5.62,5.89-3.19,2.59-6.71,4.81-10.21,6.96-6.13,3.77-12.51,7.12-19.02,10.2-13.57,6.43-27.69,12.33-41.89,17.21-15.27,5.25-31.42,5.26-47.4,4.96s-31.69-1.63-47.36-4.04c-8.55-1.31-17.05-2.93-25.49-4.86-3.72-.85-7.12-.75-10.94-.72l.4,2.95c1.89-.54,3.67-.73,5.64-.64l-1.5-1.5v.36c.86-.35,1.71-.71,2.56-1.06l-.8-.72c-.6-.54-1.52-.6-2.12,0-16.08,16.05-36.61,21.93-58.87,22.59-22.38.66-44.95.18-67.32-.75-21.87-.91-43.96-3.26-64.54-11.17s-38.75-20.33-56.27-33.03c-19.7-14.28-38.26-30.08-55.59-47.16-.53-.52-1.61-.64-2.12,0-.05.06-4.97-.27-5.63-.27-2.7-.01-5.41,0-8.11.04-4.17.07-6.53-.22-9.9,2.07-6.75,4.58-11.93,10.49-16.38,17.27-5.48,8.35-12.86,14.91-19.41,22.38-6.11,6.97-11.8,14.29-17.38,21.69-11.42,15.13-22.15,32.1-36.51,44.66-7.33,6.41-17.79,12.08-27.89,10.08-4.87-.96-7.83-5.74-10.95-9.25-1.48-1.67-3.08-3.28-4.46-5.04-2.66-3.4-1.14-5.69-1.53-9.32-.52-4.86-7.81-13.24-12.44-8-3,3.39-5.13,6.15-9.84,7.16s-9.66-.11-13.26-3.43l-1.82,2.36,5.79,3.16,1.16-2.74c-5.36-1.21-10.5-3.05-15.33-5.7-1.97-1.08-4.21-2.26-5.75-3.93-2.18-2.39-2.14-5.48-2.5-8.51-1.06-9.11-8.72-10.94-14.76-16.39-6.93-6.25-11.03-15.65-10.94-24.97.11-11.13,6.42-20.79,12.3-29.78.37-.57.21-1.35-.23-1.82-2.03-2.17-4.07-4.18-5.69-6.71-1.89-2.97-3.6-5.98-5.85-8.69-5.06-6.1-11.56-10.75-16.95-16.52-5.94-6.37-11.26-15.76-12.93-24.38s3.64-18.12,12.17-20.95c3.19-1.06,6.25-1.31,9.08-3.29,1.46-1.02,2.76-2.3,4.25-3.28,2.13-1.39,4.61-1.92,7.03-2.59,7.49-2.07,15.59-2.15,22.79-5.13,8.67-3.6,19.13-2.98,28.4-3.37s19.35-.6,29.03-.57,18.82.26,28.22.7c4.57.21,9.13.48,13.69.79,2.42.17,6.91,1.52,9.2.24,5.89-3.3-2.32-10.72-4.95-12.95-6.28-5.32-13.29-9.72-19.61-15.02-12.96-10.87-24.57-23.39-34.39-37.17-10.54-14.81-18.85-31.14-27.23-47.23-9.26-17.79-17.95-36.1-23.01-55.59-2.59-9.99-4.17-20.25-4.28-30.58s1.37-23.23,12.94-26.14c1.63-.41,1.31-3-.4-2.95l-2.25.07.76,2.8c8.35-6.29,17.15-13.03,21.07-23.1,1.96-5.05,2.01-10.1,1.48-15.42-.67-6.76-1.47-13.5-2.21-20.25l-2.95.4,1.81,11.87,2.89-.8c-6.94-26.64-12.19-53.71-15.56-81.03-1.58-12.78-3.02-25.69-3.39-38.57-.19-6.66-.02-13.39,1.08-19.97.48-2.85,1.12-5.67,1.95-8.44.42-1.39.89-2.76,1.41-4.11.27-.75.58-1.48.92-2.2.47-.72.06-.7-1.24.04l-1.1-1.45c.07.69-.38,2.21-.81,2.76l1.69-.69c2.47.42.19,1.71,1.25-.3.19-.35.28-.85.4-1.23.46-1.54.99-3.07,1.48-4.6.92-2.85,1.65-5.81,2.99-8.49,3.61-7.21,7.56-14.27,11.34-21.38,1.66-3.12,3.21-6.45,5.9-8.84s6.21-3.74,9.6-4.88c5.07-1.71,10.36-3.13,14.76-6.32,4.77-3.46,6.75-8.2,7.54-13.91,1.98-14.33,4.49-28.24,7.99-42.29l-2.95-.4.03.33c.19,1.9,2.88,1.96,3,0,.44-7.14,4.15-13.32,5.77-20.17,1.51-6.36.74-12.79,2.89-19.09,1.15-3.38,1.52-6.84,2.94-10.14,1.19-2.75,2.15-5.57,3.04-8.43,1.78-5.69,3.59-13.54,10.43-14.74l-1.69-.69c5.61,7.63,7.83,17.28,11.84,25.78,4.29,9.09,9.46,17.73,14.59,26.36,10.48,17.62,19.72,35.75,27.48,54.73,7.61,18.61,14.02,37.69,20,56.88,2.99,9.61,5.87,19.25,8.74,28.89s6,19.76,7.3,30.03c1.15,9.01,1.45,18.12,3.13,27.06,1.18,6.27,3.73,11.48,5.89,17.33,1.64,4.46,2.51,9.39,3.74,13.98,5.22,19.52,10.43,39.05,15.65,58.57,2.45,9.18,4.9,18.35,7.36,27.53.69,2.6,1.02,6.55,2.53,8.9.84,1.31,2.66.7,2.8-.76.19-2.09-1.45-5.17-2.04-7.11-1.7-5.6-3.41-11.19-5.14-16.78-3.78-12.28-7.56-24.56-11.5-36.79-.6-1.88-1.33-7.22-3.46-8.1-.55-.23-1.46.14-1.69.69-.38.88-.05,1.68.15,2.56,1.74,7.49,4.98,14.62,7.56,21.84,5.09,14.27,8.84,28.97,12.93,43.55s8.28,28.31,14.34,41.76c6.29,13.96,14.52,26.92,22.66,39.86,4.21,6.69,8.42,13.38,12.63,20.08.85,1.35,2.16,2.86,2.82,4.23.31.63.42,1.51.62,2.35.85,3.57,2.09,7.08,3.51,10.46,2.45,5.86,5.64,11.38,9.5,16.42,3.04,3.98,6.78,9.04,12.12,9.81,5.83.84,10.44-3.73,15.45-5.81,3.35-1.39,6.94-2.12,10.37-3.26,3.62-1.21,7.17-2.63,10.78-3.88,13.54-4.65,27.93-6.42,42.2-5.35,16.19,1.22,32.22,6.15,46.09,14.64,3.76,2.3,7.35,4.88,10.62,7.83,2.52,2.27,4.62,5.1,7.32,7.16,5.59,4.27,14.92,2.83,21.54,3.04l-1.45-1.1.21.76c.22.78,1.06,1.26,1.85,1.05l1.9-.52c1.61-.44,1.32-3-.4-2.95-1.2.04-2.4.07-3.61.11l.4,2.95,2.35-.37c1.7-.27,1.25-2.95-.4-2.95h-1.26c-1.93,0-1.93,2.95,0,3l1.54.04-1.5-1.5-.38,2.25,2.74,1.16.48-1.15-2.89-.8c-1.06,6.11-5.5,10.29-9.77,14.44-3.96,3.84-7.95,7.68-12.3,11.08-5.34,4.17-11.09,7.37-17.53,9.49-5.5,1.82-10.73,3.55-15.67,6.66-5.42,3.41-10.58,7.27-15.83,10.93-3.78,2.64-8.67,5.19-10.57,9.65-4.23,9.93,5.66,17.78,12.86,22.47l.76-2.8h-.69c-1.26,0-2.04,1.67-1.06,2.56,4.13,3.78,8.07,7.74,11.82,11.9,1.3,1.44,3.41-.69,2.12-2.12h0Z"/>
    </g>
  </g>
</svg>