<svg version="1.1" id="Layer_1" xmlns="http://www.w3.org/2000/svg" xmlns:xlink="http://www.w3.org/1999/xlink" x="0px" y="0px"
	 width="100%" viewBox="0 0 256 240" enable-background="new 0 0 256 240" xml:space="preserve">
<style>
	path { fill: #D7D1C4; }
</style>
<path fill="#000000"  opacity="1.000000" stroke="none" 
	d="
M92.290588,222.588989 
	C86.552635,223.556549 81.207794,224.470169 75.841797,225.235413 
	C73.941231,225.506454 71.865616,225.586624 72.340485,221.959518 
	C69.866829,225.835205 66.988335,225.496078 63.739525,224.230927 
	C61.274784,223.271118 58.595840,222.872299 56.098869,221.981064 
	C53.832218,221.172058 51.898315,220.417572 50.795624,217.449539 
	C49.593521,214.213928 46.025551,212.659531 42.258900,212.643326 
	C40.900192,206.581680 34.528435,203.666031 33.195095,197.476379 
	C31.948242,191.688232 27.931314,186.767334 27.215023,180.755524 
	C26.536867,175.063766 23.742424,170.071838 22.085861,164.710663 
	C20.537737,159.700439 19.913235,154.662933 19.735022,149.578568 
	C19.256981,135.940247 20.986942,122.353371 21.282316,108.756882 
	C21.756878,86.912094 29.564573,68.007690 41.603355,50.380760 
	C44.159481,46.638134 47.225769,43.365704 50.538185,40.306206 
	C52.051350,38.908581 53.790802,37.645916 55.902252,38.520348 
	C58.129616,39.442783 57.231644,41.685059 57.299622,43.393852 
	C57.370514,45.175873 57.095863,46.971638 56.939301,49.239151 
	C60.255997,48.252567 60.473431,45.105602 62.145847,43.291897 
	C63.618103,41.695271 64.056320,39.376144 67.528870,40.631691 
	C69.833122,41.464828 72.204414,38.673416 74.262177,37.025867 
	C75.460526,36.066410 76.639267,34.923706 78.226463,35.993969 
	C79.697350,36.985798 78.527786,38.407509 78.563766,39.651852 
	C78.687752,43.939102 77.183884,47.774010 75.679428,51.670090 
	C75.076118,53.232456 73.906891,54.904316 75.050232,57.231686 
	C78.130844,53.814705 79.513062,49.692860 81.688370,46.084862 
	C84.447556,41.508427 87.108292,36.864021 91.153030,33.285946 
	C93.014877,31.638912 95.405479,29.765285 97.871262,31.223063 
	C100.478966,32.764740 99.289436,35.641018 98.773109,38.021828 
	C95.272758,54.161892 87.781227,68.941139 82.858170,84.599327 
	C80.387848,92.456367 79.526321,100.636177 79.641281,108.685432 
	C79.719337,114.151207 76.128777,118.184555 76.127563,123.358116 
	C76.125114,133.763382 76.067284,144.153717 78.928131,154.290131 
	C79.198631,155.248535 79.643066,156.185287 78.219086,157.960342 
	C76.483253,153.192429 73.682167,149.623276 70.306084,146.467255 
	C69.389740,145.610641 69.846313,144.324326 71.131645,143.590652 
	C72.207367,142.976639 73.832794,142.981644 74.078720,140.913177 
	C65.183342,140.325668 70.157349,132.952515 67.771835,127.911842 
	C64.878395,134.693451 67.340477,141.301544 65.771500,147.504715 
	C62.202610,142.479462 63.168892,136.950699 63.363628,131.364395 
	C63.559216,125.753906 64.117386,119.908447 63.193218,114.538956 
	C62.199093,108.763046 61.411987,103.173645 61.767204,97.321342 
	C59.782669,101.699081 59.391247,106.390854 59.349949,111.103584 
	C59.268250,120.426018 58.246563,129.602051 56.803288,138.832230 
	C56.084057,143.431915 55.578960,148.786209 57.942272,153.527176 
	C58.224602,154.093552 58.378902,154.870987 58.245987,155.474228 
	C56.982750,161.207657 58.350033,166.575592 60.077648,172.008072 
	C61.090836,175.194031 59.206264,177.312546 55.463787,178.908112 
	C49.039574,163.202042 50.080456,146.490906 47.112919,130.366913 
	C45.488052,141.744034 42.483116,152.969711 46.450619,165.237137 
	C41.754539,163.855408 43.762741,158.901230 38.841698,157.837311 
	C42.658245,166.353867 33.473286,173.854355 39.883797,182.911819 
	C44.799435,189.857147 48.119106,198.049408 54.211269,204.244507 
	C68.359840,218.632202 84.714592,216.931549 101.711868,209.792404 
	C87.453812,210.453201 72.831276,213.278137 59.646587,203.079742 
	C65.046768,200.207474 68.389420,207.904266 73.574577,204.690628 
	C69.061279,198.660294 61.114567,195.013351 60.454903,186.268219 
	C64.816315,192.082550 68.760315,198.255859 76.365059,200.178284 
	C78.423073,195.131912 83.607445,201.283966 86.353889,197.121216 
	C70.399956,185.368347 65.801117,168.362900 64.948463,149.712677 
	C67.644218,150.943985 67.725113,153.508133 68.222191,155.744263 
	C70.421654,165.638611 72.086525,175.692047 77.778229,184.424881 
	C79.781540,187.498566 82.132065,190.073090 87.028900,191.548889 
	C84.969528,189.335388 83.496269,188.203583 82.645058,186.715866 
	C81.705978,185.074600 79.900513,183.096329 83.614182,181.826752 
	C86.343102,180.893799 82.737320,178.239029 84.359016,176.550278 
	C85.259178,176.057327 85.921219,176.746170 86.253593,177.418396 
	C89.681465,184.351044 96.002647,186.085785 102.920609,187.626144 
	C113.859932,190.061935 123.611519,186.890472 133.264374,182.616348 
	C155.541595,172.752380 175.622574,159.502289 193.492142,142.953857 
	C196.062881,140.573181 199.334351,139.839737 202.223450,138.250961 
	C207.065811,135.588043 210.554672,131.296844 215.120392,128.317932 
	C218.136124,126.350319 219.942581,126.622673 221.086578,130.515045 
	C227.696213,126.903397 232.724091,120.822685 240.452347,119.450577 
	C231.386383,129.680130 222.188278,139.596008 210.649551,147.044449 
	C208.688202,144.263016 212.171829,142.132095 209.405380,140.654694 
	C207.664276,139.724854 205.161240,142.020203 205.891205,143.946701 
	C206.500580,145.554886 208.656525,146.522034 207.643066,149.519455 
	C200.510468,147.346039 195.177368,149.110718 194.161301,157.678574 
	C195.689362,158.435013 198.896652,156.705322 198.739349,159.803375 
	C198.603836,162.472366 195.912979,162.599167 193.685852,162.687729 
	C190.145096,162.828476 186.799591,163.284897 187.733627,168.192596 
	C188.035599,169.779144 188.380600,171.461227 186.447617,171.868301 
	C184.104462,172.361740 183.784821,170.480621 183.757339,168.702911 
	C183.732712,167.111679 183.461151,165.588577 181.804199,164.997589 
	C179.722809,164.255234 178.897415,165.964111 177.671768,167.583405 
	C180.898590,170.245010 178.678360,171.869690 176.725845,174.243835 
	C171.158279,181.013702 162.525085,182.790924 155.891159,187.746246 
	C154.964478,188.438446 153.604355,188.722885 152.950806,189.581268 
	C147.117584,197.242859 138.011200,199.262619 129.881958,202.771210 
	C124.660950,205.024582 119.369324,207.654068 115.356102,211.107239 
	C108.553871,216.960175 99.847328,217.999313 92.290588,222.588989 
M43.280060,200.829208 
	C38.460804,190.956512 35.119484,180.505020 31.600534,170.101624 
	C30.787315,176.112961 32.588852,181.463638 34.988434,186.684769 
	C35.742569,188.325653 37.082626,190.077377 36.147339,191.833862 
	C34.515041,194.899368 36.479214,196.769730 37.834709,199.009064 
	C39.501938,201.763412 42.779076,202.397079 45.005039,204.533890 
	C44.532288,203.500229 44.059536,202.466553 43.280060,200.829208 
z"/>
<path fill="#000000" opacity="1.000000" stroke="none" 
	d="
M99.724075,48.843285 
	C102.973396,40.557522 107.563210,33.519394 112.822136,26.867889 
	C114.037460,25.330740 115.471191,24.656979 117.128693,25.575390 
	C119.623642,26.957829 120.976234,29.137369 120.628410,32.155457 
	C119.689964,40.298374 117.172173,48.000454 114.400177,55.672195 
	C109.456177,69.355194 105.943443,83.467728 102.636841,97.610580 
	C101.822136,101.095207 102.429146,104.901695 102.278160,108.555893 
	C102.184212,110.829468 102.489838,113.255463 100.586929,115.099876 
	C97.441917,114.647987 99.858727,111.029373 97.410164,109.940910 
	C95.766891,111.964127 95.050697,114.770676 95.729004,116.764503 
	C97.246323,121.224586 95.175819,124.098770 92.099106,126.024376 
	C89.022888,127.949661 87.921463,130.282410 88.389153,133.819229 
	C87.920570,133.815964 87.451996,133.812698 86.983414,133.809433 
	C85.873711,127.465775 84.153587,121.158409 83.773788,114.771347 
	C82.804985,98.479370 86.386864,82.853737 92.146957,67.699921 
	C94.508156,61.488022 97.114120,55.369160 99.724075,48.843285 
z"/>
<path fill="#000000" opacity="1.000000" stroke="none" 
	d="
M77.894363,177.371857 
	C75.664764,170.870636 73.583618,164.670761 71.275192,157.793823 
	C76.531898,160.440903 80.892921,172.086838 79.920372,178.884979 
	C78.838089,179.189804 78.537613,178.279297 77.894363,177.371857 
z"/>

</svg>