<?xml version="1.0" encoding="UTF-8"?>
<svg id="Layer_2" data-name="Layer 2" xmlns="http://www.w3.org/2000/svg" viewBox="0 0 596.91 597.07">
  <defs>
    <style>
      .cls-1 {
        letter-spacing: -.02em;
      }

      .cls-2 {
        font-family: GaramondPremrPro-MedCapt, 'Garamond Premier Pro';
        font-size: 24.51px;
      }

      .cls-2, .cls-3 {
        fill: #231f20;
      }

      .cls-4 {
        letter-spacing: 0em;
      }

      .cls-5 {
        letter-spacing: .03em;
      }

      .cls-6 {
        letter-spacing: .01em;
      }

      .cls-7 {
        letter-spacing: .02em;
      }

      .cls-8 {
        letter-spacing: .02em;
      }

      .cls-9 {
        letter-spacing: 0em;
      }

      .cls-10 {
        letter-spacing: .02em;
      }

      .cls-11 {
        letter-spacing: 0em;
      }

      .cls-12 {
        letter-spacing: 0em;
      }

      .cls-13 {
        letter-spacing: -.03em;
      }

      .cls-14 {
        letter-spacing: 0em;
      }

      .cls-15 {
        letter-spacing: 0em;
      }

      .cls-3 {
        font-family: GaramondPremrPro-ItCapt, 'Garamond Premier Pro';
        font-size: 33px;
        font-style: italic;
      }

      .cls-16 {
        letter-spacing: -.01em;
      }

      .cls-17 {
        letter-spacing: 0em;
      }

      .cls-18 {
        letter-spacing: -.02em;
      }

      .cls-19 {
        letter-spacing: 0em;
      }

      .cls-20 {
        letter-spacing: -.03em;
      }

      .cls-21 {
        letter-spacing: -.03em;
      }

      .cls-22 {
        letter-spacing: -.02em;
      }

      .cls-23 {
        letter-spacing: -.02em;
      }

      .cls-24 {
        letter-spacing: -.03em;
      }

      .cls-25 {
        letter-spacing: 0em;
      }

      .cls-26 {
        letter-spacing: .02em;
      }

      .cls-27 {
        fill: none;
        stroke: #231f20;
        stroke-miterlimit: 10;
      }

      .cls-28 {
        letter-spacing: 0em;
      }

      .cls-29 {
        letter-spacing: -.02em;
      }

      .cls-30 {
        letter-spacing: -.02em;
      }

      .cls-31 {
        letter-spacing: -.01em;
      }

      .cls-32 {
        letter-spacing: -.01em;
      }

      .cls-33 {
        letter-spacing: 0em;
      }

      .cls-34 {
        letter-spacing: 0em;
      }

      .cls-35 {
        letter-spacing: 0em;
      }
    </style>
  </defs>
  <g id="Layer_1-2" data-name="Layer 1">
    <circle class="cls-27" cx="299.98" cy="298.41" r="132.69"/>
    <line class="cls-27" x1="167.43" y1="298.41" x2="253.39" y2="298.41"/>
    <line class="cls-27" x1="299.43" y1="165.72" x2="298.79" y2="253.01"/>
    <line class="cls-27" x1="298.79" y1="0" x2="299.43" y2="165.72"/>
    <line class="cls-27" x1="434.52" y1="298.42" x2="596.41" y2="298.62"/>
    <line class="cls-27" x1="299.43" y1="431.11" x2="299.43" y2="596.88"/>
    <line class="cls-27" x1="166.74" y1="298.41" x2=".96" y2="298.41"/>
    <line class="cls-27" x1="413.67" y1="230.5" x2="556.68" y2="149.87"/>
    <line class="cls-27" x1="185.22" y1="365.55" x2="42.52" y2="449.92"/>
    <line class="cls-27" x1="365.86" y1="183.15" x2="441.01" y2="36.92"/>
    <line class="cls-27" x1="233.04" y1="412.91" x2="150.08" y2="556.43"/>
    <line class="cls-27" x1="366.07" y1="412.78" x2="449.3" y2="556.15"/>
    <line class="cls-27" x1="232.83" y1="183.27" x2="149.6" y2="39.9"/>
    <line class="cls-27" x1="414.33" y1="364.44" x2="557.18" y2="447.01"/>
    <line class="cls-27" x1="184.57" y1="231.62" x2="41.05" y2="148.65"/>
    <circle class="cls-27" cx="298.79" cy="298.41" r="45.41"/>
    <line class="cls-27" x1="344.2" y1="298.41" x2="437.14" y2="298.41"/>
    <line class="cls-27" x1="298.79" y1="343.82" x2="299.43" y2="431.11"/>
    <text class="cls-2" transform="translate(312.15 214.22) rotate(10.75)"><tspan x="0" y="0"> </tspan></text>
    <text class="cls-2" transform="translate(316.8 214.3) rotate(19.85)"><tspan x="0" y="0">W</tspan></text>
    <text class="cls-2" transform="translate(338.41 222.77) rotate(30.35)"><tspan x="0" y="0">I</tspan></text>
    <text class="cls-2" transform="translate(345.89 226.68) rotate(39.16)"><tspan x="0" y="0">N</tspan></text>
    <text class="cls-2" transform="translate(360.14 238.37) rotate(50.72)"><tspan x="0" y="0">T</tspan></text>
    <text class="cls-2" transform="translate(370.65 251.4) rotate(60.74)"><tspan x="0" y="0">E</tspan></text>
    <text class="cls-2" transform="translate(377.42 263.27) rotate(70.34)"><tspan x="0" y="0">R</tspan></text>
    <text class="cls-2" transform="translate(382.32 277.83) rotate(77)"><tspan x="0" y="0">	</tspan></text>
    <text class="cls-2" transform="translate(385.13 297.93) rotate(90.54)"><tspan x="0" y="0"> </tspan></text>
    <text class="cls-2" transform="translate(385.08 302.82) rotate(93.77)"><tspan x="0" y="0"> </tspan></text>
    <text class="cls-2" transform="translate(384.77 307.72) rotate(96.98)"><tspan x="0" y="0"> </tspan></text>
    <text class="cls-2" transform="translate(384.18 312.57) rotate(100.16)"><tspan x="0" y="0"> </tspan></text>
    <text class="cls-2" transform="translate(383.32 317.39) rotate(103.35)"><tspan x="0" y="0"> </tspan></text>
    <text class="cls-2" transform="translate(382.2 322.16) rotate(106.59)"><tspan x="0" y="0"> </tspan></text>
    <text class="cls-2" transform="translate(381 326.8) rotate(111.98)"><tspan x="0" y="0">S</tspan></text>
    <text class="cls-2" transform="translate(376.72 337.66) rotate(120.46)"><tspan x="0" y="0">P</tspan></text>
    <text class="cls-2" transform="translate(370.04 349.26) rotate(129.92)"><tspan x="0" y="0">R</tspan></text>
    <text class="cls-2" transform="translate(359.78 361.15) rotate(137.98)"><tspan x="0" y="0">I</tspan></text>
    <text class="cls-2" transform="translate(353.78 367.1) rotate(146.72)"><tspan x="0" y="0">N</tspan></text>
    <text class="cls-2" transform="translate(338.87 376.97) rotate(158.39)"><tspan x="0" y="0">G</tspan></text>
    <text class="cls-2" transform="translate(322.08 383.19) rotate(165.86)"><tspan x="0" y="0">	</tspan></text>
    <text class="cls-2" transform="translate(315.82 384.72) rotate(170.15)"><tspan x="0" y="0">	</tspan></text>
    <text class="cls-2" transform="translate(285.86 385.52) rotate(-169.96)"><tspan x="0" y="0"> </tspan></text>
    <text class="cls-2" transform="translate(281.12 384.86) rotate(-164.64)"><tspan x="0" y="0">S</tspan></text>
    <text class="cls-2" transform="translate(270.19 382.18) rotate(-155.12)"><tspan x="0" y="0">U</tspan></text>
    <text class="cls-2" transform="translate(254.54 375.28) rotate(-142.55)"><tspan x="0" y="0">M</tspan></text>
    <text class="cls-2" transform="translate(237.76 362.55) rotate(-128.73)"><tspan x="0" y="0">M</tspan></text>
    <text class="cls-2" transform="translate(224.66 345.66) rotate(-117.29)"><tspan x="0" y="0">E</tspan></text>
    <text class="cls-2" transform="translate(218.29 333.54) rotate(-107.66)"><tspan x="0" y="0">R</tspan></text>
    <text class="cls-2" transform="translate(213.91 318.86) rotate(-101.02)"><tspan x="0" y="0">	</tspan></text>
    <text class="cls-2" transform="translate(211.84 302.71) rotate(-90.17)"><tspan x="0" y="0">	</tspan></text>
    <text class="cls-2" transform="translate(216.04 273.01) rotate(-70.38)"><tspan x="0" y="0"> </tspan></text>
    <text class="cls-2" transform="translate(217.67 268.41) rotate(-67.13)"><tspan x="0" y="0"> </tspan></text>
    <text class="cls-2" transform="translate(219.29 263.95) rotate(-61.13)"><tspan x="0" y="0">F</tspan></text>
    <text class="cls-2" transform="translate(224.84 253.36) rotate(-52.24)"><tspan x="0" y="0">A</tspan></text>
    <text class="cls-2" transform="translate(234.66 240.79) rotate(-42.68)"><tspan x="0" y="0">L</tspan></text>
    <text class="cls-2" transform="translate(244.51 231.68) rotate(-33.88)"><tspan x="0" y="0">L</tspan></text>
    <text class="cls-3" transform="translate(350.07 155.85) rotate(-75.27)"><tspan class="cls-9" x="0" y="0">D</tspan><tspan x="23.26" y="0">e</tspan><tspan class="cls-33" x="35.54" y="0">c</tspan><tspan class="cls-8" x="47.25" y="0">e</tspan><tspan class="cls-1" x="60.06" y="0">m</tspan><tspan class="cls-12" x="84.28" y="0">b</tspan><tspan class="cls-10" x="100.65" y="0">e</tspan><tspan class="cls-4" x="113.45" y="0">r</tspan></text>
    <text class="cls-3" transform="translate(416.04 193.53) rotate(-48.39)"><tspan class="cls-21" x="0" y="0">J</tspan><tspan class="cls-35" x="10.36" y="0">a</tspan><tspan class="cls-17" x="26.4" y="0">n</tspan><tspan x="43.2" y="0">u</tspan><tspan class="cls-35" x="60.59" y="0">a</tspan><tspan class="cls-5" x="76.62" y="0">r</tspan><tspan x="89.56" y="0">y</tspan></text>
    <text class="cls-3" transform="translate(449.67 263.5) rotate(-11.21)"><tspan class="cls-20" x="0" y="0">F</tspan><tspan class="cls-32" x="17.23" y="0">e</tspan><tspan class="cls-19" x="29.07" y="0">b</tspan><tspan class="cls-8" x="45.51" y="0">r</tspan><tspan x="58.15" y="0">u</tspan><tspan class="cls-35" x="75.54" y="0">a</tspan><tspan class="cls-5" x="91.57" y="0">r</tspan><tspan x="104.51" y="0">y</tspan></text>
    <text class="cls-3" transform="translate(449.96 345.33) rotate(18.08)"><tspan class="cls-32" x="0" y="0">M</tspan><tspan class="cls-35" x="28.25" y="0">a</tspan><tspan x="44.29" y="0">r</tspan><tspan class="cls-15" x="56.4" y="0">c</tspan><tspan x="67.98" y="0">h</tspan></text>
    <text class="cls-3" transform="translate(407.68 415.67) rotate(50.81)"><tspan class="cls-24" x="0" y="0">A</tspan><tspan class="cls-25" x="19.96" y="0">p</tspan><tspan class="cls-7" x="35.15" y="0">r</tspan><tspan class="cls-33" x="47.98" y="0">i</tspan><tspan class="cls-4" x="56.83" y="0">l</tspan></text>
    <text class="cls-3" transform="translate(332.82 452) rotate(75.43)"><tspan class="cls-32" x="0" y="0">M</tspan><tspan class="cls-22" x="28.25" y="0">a</tspan><tspan x="43.59" y="0">y</tspan></text>
    <text class="cls-3" transform="translate(253.34 451.95) rotate(104.73)"><tspan class="cls-30" x="0" y="0">J</tspan><tspan x="10.72" y="0">u</tspan><tspan class="cls-25" x="28.12" y="0">n</tspan><tspan class="cls-4" x="44.88" y="0">e</tspan></text>
    <text class="cls-3" transform="translate(181.47 405.94) rotate(127.66)"><tspan class="cls-30" x="0" y="0">J</tspan><tspan class="cls-1" x="10.72" y="0">u</tspan><tspan class="cls-31" x="27.36" y="0">l</tspan><tspan x="35.74" y="0">y</tspan></text>
    <text class="cls-3" transform="translate(148.28 334.26) rotate(170.96)"><tspan class="cls-13" x="0" y="0">A</tspan><tspan class="cls-25" x="19.93" y="0">u</tspan><tspan class="cls-26" x="37.09" y="0">gu</tspan><tspan class="cls-35" x="68.31" y="0">s</tspan><tspan x="78.77" y="0">t</tspan></text>
    <text class="cls-3" transform="translate(153.36 249.71) rotate(-165.27)"><tspan class="cls-34" x="0" y="0">S</tspan><tspan class="cls-28" x="15.61" y="0">e</tspan><tspan class="cls-16" x="28.18" y="0">p</tspan><tspan class="cls-14" x="43.2" y="0">t</tspan><tspan class="cls-10" x="53.79" y="0">e</tspan><tspan class="cls-1" x="66.59" y="0">m</tspan><tspan class="cls-12" x="90.81" y="0">b</tspan><tspan class="cls-8" x="107.18" y="0">e</tspan><tspan x="119.99" y="0">r</tspan></text>
    <text class="cls-3" transform="translate(199.74 181.85) rotate(-138.39)"><tspan class="cls-9" x="0" y="0">O</tspan><tspan x="22.57" y="0">c</tspan><tspan class="cls-17" x="34.45" y="0">t</tspan><tspan class="cls-23" x="45.04" y="0">o</tspan><tspan class="cls-11" x="58.28" y="0">b</tspan><tspan class="cls-8" x="74.64" y="0">e</tspan><tspan x="87.45" y="0">r</tspan></text>
    <text class="cls-3" transform="translate(270 147.57) rotate(-104.57)"><tspan class="cls-18" x="0" y="0">N</tspan><tspan class="cls-6" x="22.41" y="0">o</tspan><tspan class="cls-19" x="36.53" y="0">v</tspan><tspan class="cls-10" x="53.95" y="0">e</tspan><tspan class="cls-29" x="66.76" y="0">m</tspan><tspan class="cls-11" x="90.98" y="0">b</tspan><tspan class="cls-8" x="107.35" y="0">e</tspan><tspan x="120.15" y="0">r</tspan></text>
    <circle class="cls-27" cx="298.45" cy="298.62" r="297.95"/>
  </g>
</svg>