<?xml version="1.0" encoding="UTF-8"?>
<svg id="Layer_2" data-name="Layer 2" xmlns="http://www.w3.org/2000/svg" viewBox="0 0 705.75 881.3">
  <defs>
    <style>
      .cls-1 {
        fill: #0e180b;
        stroke-width: 0px;
      }
    </style>
  </defs>
  <g id="Layer_1-2" data-name="Layer 1">
    <g>
      <path class="cls-1" d="m537.96,717.93c-21.81,14.79-88.62,48.91-114,56-15.18,4.24-7.82,2.76-23,7l-23.07,3.1c-21.81,3.65-44.75.24-64.54-9.61-3.09-1.54-6.42-3.28-9.81-2.61-2.24.44-4.13,1.88-5.93,3.28-20.44,15.85-40.89,31.69-61.33,47.54-6.64,5.15-13.48,10.4-21.52,12.86-2.71.83-5.58,1.36-7.94,2.92-3.54,2.35-9.16,7.44-12.86,9.52-16,9-12,7-20.5,12.42-6.11,3.89-13.02,6.51-18.31,11.46-2.4,2.24-4.65,4.74-7.54,6.31-6.34,3.46-14.3,1.72-20.8-1.43s-12.39-7.62-19.28-9.82c-12.31-3.92-26.43-.11-38.14-5.57-7.71-3.6-13.14-10.68-17.96-17.69-10.1-14.69-19.28-31.84-16.59-49.46l-.37.68c2.98-8.81,5.97-17.62,8.95-26.42.51-1.51,1.03-3.12.69-4.68-.37-1.67-1.65-2.96-2.87-4.15-5.88-5.73-11.76-11.45-17.65-17.18-3.18-3.09-6.48-6.38-7.75-10.63-1.1-3.68-.56-7.74-1.98-11.31-2.6-6.56-11.13-9.94-12.18-16.92-.34-2.23.19-4.5.94-6.62,3.08-8.62,10.28-15.66,18.96-18.56,2.97-.99,6.1-1.52,8.97-2.79,3.77-1.67,6.89-4.54,10.54-6.47,3.62-1.91,7.67-2.85,11.69-3.64,32.47-6.37,65.92-4.16,98.98-2.66,45.99,2.1,92.05,2.79,138.08,2.09,2.59-.04,5.48-.21,7.24-2.1,2.44-2.62,1.23-7.03-1.15-9.7s-24.62-19.47-26.99-22.15l20.28,14.18c-25.79-12.07-41.79-37.94-56.32-62.44-7.05-11.9-14.13-23.84-19.48-36.59-4.25-10.15-7.37-20.73-10.47-31.29-6.22-21.15-12.5-43.29-8.3-64.93l-.29.61c-.26-9.4,4.43-18.2,9.78-25.93,5.35-7.72,11.58-15.01,15.12-23.72,5.81-14.25,3.72-30.47-.35-45.31-4.06-14.84-10.02-29.27-11.82-44.55-.98-8.33-.7-16.75-.42-25.14.73-21.83,1.46-43.65,2.19-65.48l-.36-.07c-1.39-15.51,5.74-30.75,15.72-42.7s22.7-21.22,34.85-30.96c4.13-3.31,8.33-6.83,10.67-11.58,1.89-3.84,2.42-8.19,3.51-12.33,2.39-9.09,7.54-17.28,9.8-26.4,1.94-7.83,1.69-16.06,3.56-23.9,1.96-8.22,6.17-15.73,8.52-23.84,3.01-10.38,2.9-21.48,6.02-31.83,2.13-7.07,6.8-14.44,14.11-15.46l1.61,1.3c8.67,6.21,10.18,18.17,13.53,28.31,4.12,12.48,11.87,23.39,17.61,35.21,6.85,14.12,10.78,29.44,14.99,44.56,2.02,7.24-17.13-35.15-11.07-30.7l17.75,45.75c29.52,55.64,23,123.2,40.75,183.63,4.47,15.23,10.5,30.04,13.57,45.62,1.69,8.59,2.5,17.47,5.94,25.53,2.42,5.69,6.09,10.79,8.36,16.54,3.44,8.7,3.48,18.31,3.9,27.66.33,7.34,2.28,16.42,9.41,18.21,4.74-23.11,1.45-46.99-.28-70.52-1.08-14.76-1.53-29.57-1.36-44.37.11-9.21.46-18.46,2.07-27.53,1.6-9.05,4.42-17.83,7.24-26.58,6.39-19.86,14.69-41.92,33.77-50.36,14.99-6.63,32.47-2.75,48.55-5.93,16.29-3.23,30.88-14.17,38.54-28.9,4.95-9.52,7.33-20.74,14.95-28.3,4.41-4.38,10.17-7.08,15.38-10.47,6.63-4.32,12.49-9.84,19.56-13.39s16.08-4.77,22.61-.3l-.75-.56c4.93.08,8.66,5,9.24,9.89s-1.17,9.72-2.83,14.36c-20.93,58.41-32.49,119.68-43.97,180.65l-.62-4.33c.16,17.76-1.62,35.56-5.61,52.88-3.93,17.05-9.99,33.58-13.54,50.72-2.1,10.13-3.3,20.42-4.51,30.69-1.75,14.91-3.5,29.82-5.24,44.73-1.13,9.62,1.08,31.21,3.11,40.69l-4-31c-2.71,6.44,2.32,26.58,8.52,29.79,6.2,3.22,13.49,3.26,20.47,3.53,16.49.64,33.57,3.17,47.29,12.35,6.99,4.67,12.8,10.88,19.51,15.95s14.85,10.19,23.22,9.37l.48.07c2.08,3.76-.26,8.35-2.56,11.99-2.99,4.74-6.07,9.58-10.52,12.99-3.82,2.92-8.4,4.61-12.74,6.68-7.55,3.61-49.74,20.36-55.67,26.26-2.51,2.5,18.89-11.06,16-9-3.55,2.54-11.99,7.29-16,9"/>
      <path class="cls-1" d="m537.2,716.63c-12.28,8.28-25.49,15.27-38.59,22.15-15.84,8.32-31.91,16.26-48.29,23.46-6.86,3.02-13.79,5.93-20.87,8.38-5.96,2.06-12.09,3.55-18.05,5.59-10.78,3.7-21.69,4.66-32.92,6.24-10.47,1.47-20.8,2.01-31.33.65-13.03-1.67-24.17-6.33-36.12-11.44-4.26-1.82-7.99-2-11.97.49-5.45,3.41-10.4,7.97-15.47,11.9-10.68,8.28-21.35,16.55-32.03,24.83-10.21,7.91-20.34,17.54-32.08,23.14-4.66,2.22-9.98,2.73-14.28,5.67-4.59,3.14-8.59,6.97-13.45,9.75s-9.82,5.52-14.52,8.64c-7.57,5.03-16.37,8.53-23.16,14.65-2.97,2.68-5.56,5.74-9.49,7.04-3.4,1.12-7.09.83-10.51,0-7.01-1.72-12.85-6.14-19.18-9.39-11.79-6.05-24.07-3.94-36.67-6.03-14.84-2.47-23.26-15.32-30.56-27.27-7.56-12.37-13.3-26.19-11.33-40.94.2-1.52-2.13-1.98-2.8-.76l-.37.68,2.74,1.16c2.98-8.79,6.29-17.54,8.95-26.42.89-2.97,1.25-5.43-.58-8.09-2.04-2.96-5.31-5.43-7.87-7.93-3.14-3.05-6.27-6.11-9.41-9.16-2.85-2.77-6.2-5.56-8.23-9.03-3.55-6.07-1.5-13.26-6.15-18.99s-11.66-9.44-8.55-18.29c2.78-7.92,9.45-14.43,17.3-17.29,3.27-1.19,6.75-1.72,9.94-3.16,3.58-1.62,6.51-4.26,9.94-6.13,7.98-4.36,18.41-5.17,27.29-6.22,35.98-4.23,72.5-.44,108.55.8,37.26,1.28,74.6,1.81,111.88,1.09,5.59-.11,12.02-1.79,10.78-8.85-.78-4.39-4.11-6.87-7.34-9.49-7.31-5.95-15.95-11.28-22.4-18.18l-1.82,2.36c6.76,4.73,13.52,9.46,20.28,14.18l1.51-2.59c-23.68-11.35-38.77-33.63-51.94-55.46-7.7-12.77-15.54-25.61-21.66-39.23-6.49-14.43-10.74-29.9-14.97-45.11-4.86-17.48-8.61-35.63-5.31-53.75.28-1.54-1.96-2.81-2.74-1.16l-.29.61,2.8.76c0-15.82,11.93-27.25,19.87-39.75s9.77-25.94,7.85-40.23c-2.02-15-7.8-29.07-11.73-43.6-4.46-16.5-3.95-32.76-3.38-49.68.63-18.95,1.27-37.91,1.9-56.86.02-.62-.48-1.32-1.1-1.45l-.36-.07,1.1,1.45c-1.96-27.03,18.52-47.3,37.91-62.9,8.21-6.61,19.73-13.03,23.85-23.24,2.2-5.46,2.78-11.45,4.86-16.98,2.39-6.35,5.61-12.39,7.46-18.94,1.5-5.31,1.9-10.81,2.51-16.27.84-7.46,2.76-14.17,5.56-21.11,2.41-5.97,4.67-11.84,5.89-18.19s1.74-12.87,3-19.24c1.16-5.86,2.87-12.08,7.07-16.54,1.01-1.07,2.12-2.04,3.4-2.76-.43.24,3.55-1.45,2.92-1.58,1.61.33,3.94,3.23,4.89,4.34,6.97,8.19,7.7,20.41,11.75,30.05,5.36,12.77,13.5,24.13,18.77,36.95,2.88,7,5.19,14.23,7.31,21.5,1.06,3.64,2.07,7.3,3.08,10.96.2.72.72,4.31,1.3,4.7s-.59.79.27-.32l1.69-.69c1.16.19.42.71.35-.02-.03-.35-.54-.98-.71-1.3-.77-1.46-1.45-2.96-2.14-4.46-1.83-3.97-3.54-8-5.14-12.06-1.33-3.39-2.07-7.16-3.49-10.46-.13-.3.02-1-.16-1.21-.03-.03-2.2,1.36-1.74-.12-.12.4.67,1.73.81,2.1,5.62,14.48,10.61,29.41,16.92,43.6,3.61,8.12,7.6,15.9,10.55,24.32s5.27,16.84,7.24,25.43c4.07,17.79,6.49,35.9,8.79,53.99,2.29,17.99,4.44,36.01,7.91,53.82,3.62,18.59,9.76,36.18,15.3,54.23,3.24,10.54,4.88,21.19,7.15,31.94.99,4.67,2.36,9.21,4.43,13.51,2.51,5.22,5.85,10.04,7.78,15.54,3.48,9.87,2.28,20.18,3.72,30.34.91,6.42,3.4,13.02,10.09,15.11.73.23,1.69-.27,1.85-1.05,6.03-30.67-.43-62.22-1.37-93.09-.48-15.54-.91-31.5,1.41-46.92,2.07-13.77,6.73-27.4,11.54-40.43,4.21-11.38,9.63-23.02,18.8-31.27,11.35-10.21,26-10.61,40.47-10.95,12.52-.29,24.51-1.8,35.5-8.23,10.09-5.9,18.23-14.77,23.21-25.34,2.97-6.3,5.03-13.02,8.57-19.04,4.36-7.43,11.1-11.24,18.21-15.63,12-7.41,27.16-24.39,42.49-14.84,1.68,1.05,3.02-1.46,1.51-2.59l-.75-.56-.76,2.8c5.77.57,8.13,6.55,7.81,11.64-.3,4.78-2.4,9.41-3.97,13.87-2.78,7.9-5.4,15.86-7.87,23.87-5.19,16.81-9.74,33.81-13.85,50.91-8.18,33.99-14.66,68.36-21.13,102.71h2.89l-.62-4.33c-.24-1.7-2.96-1.25-2.95.4.09,16.26-1.32,32.49-4.66,48.41-3.21,15.29-8.35,30.07-12.2,45.2-3.98,15.62-5.72,31.58-7.6,47.55-.94,8.03-1.88,16.06-2.82,24.08-.76,6.52-1.86,13.06-1.92,19.63-.1,11.69,1.08,23.76,3.47,35.21.34,1.63,3.16,1.29,2.95-.4-1.33-10.33-2.67-20.67-4-31-.21-1.66-2.33-2.06-2.95-.4-2.17,5.9-.2,13.69,1.66,19.4,2.2,6.71,5.04,11.73,12.02,13.9,10.71,3.33,22.81,1.73,33.85,3.46s22.62,5.44,31.99,12.43,17.52,16.45,28.62,21.34c2.4,1.06,4.89,1.86,7.49,2.23.86.12,1.72.2,2.59.21l.73.02c1.32-.39,1.66-.33,1.05.17,3.18,3.38-6.88,15.8-9.18,18.41-5.44,6.16-13.55,9.07-20.94,12.26-6.11,2.64-12.25,5.2-18.35,7.84-7.77,3.35-15.54,6.73-23.09,10.54-2.07,1.05-10.88,4.38-10.7,7.49.03.6.44,1.35,1.1,1.45,2.54.38,6.22-2.82,8.22-4.02,2.61-1.57,6.86-4.77,9.04-5.49l-1.69-2.2c.46-.63-1.85,1.09-2.47,1.48-1.49.94-3.02,1.83-4.55,2.7-2.84,1.61-5.72,3.17-8.71,4.5-1.76.78-.24,3.37,1.51,2.59,3.73-1.65,7.31-3.65,10.82-5.72,1.84-1.09,4.68-2.25,5.98-4.03.77-1.06-.51-2.59-1.69-2.2-2.63.87-5.18,3.03-7.53,4.45-1.83,1.11-3.66,2.21-5.51,3.28-.7.41-1.5.75-2.16,1.22-.54.38-1.62.38-.47.56l1.1,1.45c.08,1.45-.54.52.28.29.33-.09.86-.64,1.15-.83.8-.56,1.65-1.05,2.49-1.53,2.73-1.58,5.57-2.99,8.41-4.36,6.73-3.25,13.58-6.25,20.43-9.21,5.95-2.57,11.94-5.07,17.89-7.64,6.75-2.92,14.23-5.58,19.62-10.72,3.3-3.15,5.85-7.04,8.26-10.89,2.25-3.59,4.88-8.04,3.62-12.45-1.09-3.81-4.71-2.12-7.92-2.73-6.3-1.21-11.99-5.07-17.01-8.89-9.04-6.9-16.63-15.28-27.06-20.21-9.49-4.49-19.87-6.6-30.26-7.62-6.41-.63-12.86-.49-19.26-1.17-5.33-.56-10.99-1.58-13.93-6.45-3.76-6.23-7.21-17.33-4.58-24.49l-2.95-.4c1.33,10.33,2.67,20.67,4,31l2.95-.4c-2.16-10.37-3.16-21.18-3.35-31.75-.25-13.98,2.59-28.22,4.22-42.08,1.91-16.3,3.49-32.69,7.4-48.67,3.71-15.15,8.89-29.91,12.27-45.14,3.76-16.95,5.39-34.3,5.3-51.65l-2.95.4.62,4.33c.21,1.46,2.63,1.4,2.89,0,11.16-59.26,22.38-118.83,42.29-175.91,2.36-6.75,6.15-14.42,4.13-21.72-1.37-4.97-5.14-8.66-10.31-9.17-1.65-.16-1.8,2.02-.76,2.8l.75.56,1.51-2.59c-11.26-7.02-23.98-.72-33.48,6.26-5.76,4.24-11.51,8.15-17.59,11.91-5.23,3.23-9.74,6.99-13.04,12.23-3.48,5.52-5.56,11.76-8.15,17.71-2.78,6.38-6.38,12.24-11.23,17.27-10.01,10.39-23.21,15.91-37.48,16.93-13.83.99-28.38-.71-41.27,5.5-10.53,5.07-17.93,14.6-23.17,24.79-5.96,11.6-9.87,24.32-13.56,36.78-4.42,14.94-5.85,29.84-5.98,45.37-.16,18.77.91,37.44,2.47,56.14,1.57,18.87,2.92,37.92-.76,56.64l1.85-1.05c-9.2-2.87-8.23-16.24-8.61-23.8-.46-9.21-1.79-18-6.08-26.27-2.44-4.69-5.27-9.15-7.03-14.16s-2.6-9.96-3.47-15.02c-1.75-10.15-4.2-19.98-7.36-29.78-6.07-18.83-11.75-37.36-15.18-56.88-3.36-19.15-5.43-38.5-8.02-57.77-2.51-18.68-5.46-37.36-10.6-55.52-2.43-8.6-5.37-17.07-8.92-25.28-2.02-4.66-4.6-9.07-6.44-13.79-3.46-8.93-6.93-17.86-10.39-26.79l-4.93-12.71c-.55-1.43-1.07-4.26-2.5-5.14-2.31-1.43-3.3,1.02-3.16,2.89.3,3.91,2.26,7.99,3.67,11.59,1.8,4.59,3.74,9.14,5.82,13.61.62,1.34,2.03,6.02,3.91,6.33.74.12,1.25-.11,1.69-.69.36-.46.16-.95.16-1.46-.01-2.39-1.44-5.28-2.08-7.58-1.95-7.05-3.95-14.09-6.33-21-4.42-12.85-10.96-24.31-17.36-36.22-3.29-6.12-6.1-12.39-8.05-19.06-1.44-4.94-2.66-9.97-4.74-14.7s-4.73-8.07-8.61-11.13c-3-2.37-6.56-.4-9.33,1.79-9.29,7.33-10.23,21.01-11.76,31.78-1.03,7.27-2.57,14.14-5.26,20.98s-5.51,13.19-6.67,20.33-1.19,13.94-2.98,20.71c-1.82,6.84-5.17,13.1-7.66,19.69s-2.64,14.02-6.36,19.79-9.65,9.65-14.86,13.77c-22.09,17.44-47.77,39.19-45.51,70.36.05.62.43,1.31,1.1,1.45l.36.07-1.1-1.45c-.56,16.66-1.11,33.31-1.67,49.97-.53,15.98-2.01,32.29,1.07,48.1,5.87,30.08,25.05,61.35,6.36,90.78-8.28,13.04-20.28,24.78-20.28,41.27,0,1.41,2.14,2.15,2.8.76l.29-.61-2.74-1.16c-2.84,15.58-.77,31.22,2.97,46.47s8.39,31.63,14.26,46.72c5.82,14.96,14.03,28.78,22.21,42.53,6.72,11.3,13.64,22.54,21.85,32.84,9.31,11.68,20.41,21.88,33.97,28.38,1.75.84,3.1-1.48,1.51-2.59-6.76-4.73-13.52-9.46-20.28-14.18-1.44-1.01-2.94,1.16-1.82,2.36,5.5,5.89,12.83,10.52,19.11,15.53,2.55,2.03,5.52,4,7.71,6.43,1.16,1.28,3.06,4.6,2.05,6.45-1.53,2.79-5.05,2.94-7.78,2.99-4.95.1-9.91.13-14.86.17-36.13.3-72.27-.26-108.37-1.68-34.95-1.38-70.29-4.62-105.07.68-7.51,1.15-15.52,2.22-22.11,6.27-3.27,2.01-6.22,4.49-9.85,5.86-3.39,1.28-6.98,1.83-10.31,3.3-9.26,4.1-21.86,16.99-17.51,28.2,2.49,6.42,10.05,9.29,11.99,16.01,1.1,3.82.55,7.83,2.12,11.56,1.35,3.2,3.69,5.84,6.11,8.28,3.17,3.19,6.44,6.29,9.66,9.43,1.76,1.72,3.53,3.44,5.29,5.15,1.46,1.42,4.02,3.15,5.03,4.92,3.02,5.28-1.25,12.76-3.03,18.01-1.68,4.95-3.36,9.91-5.04,14.86-.55,1.61,1.93,2.64,2.74,1.16l.37-.68-2.8-.76c-1.61,12.02,1.77,23.65,7.17,34.32s11.75,21.13,20.28,28.79c8.73,7.84,19.25,8.61,30.45,9,6.71.23,13.33.7,19.54,3.47,5.74,2.55,10.83,6.32,16.57,8.87,9.87,4.38,18.87,3.69,26.79-3.76,7.34-6.91,16.63-10.86,24.98-16.4,5.32-3.53,11.07-6.32,16.46-9.73,4.22-2.67,7.72-6.39,11.97-8.99,2.76-1.69,5.97-2.17,8.98-3.23s5.69-2.38,8.34-3.95c10.73-6.32,20.33-14.96,30.15-22.57,11.36-8.8,22.71-17.61,34.07-26.41,4.79-3.71,11.77-11.61,18.32-10.02,3.24.79,6.29,2.82,9.33,4.16s5.93,2.48,8.98,3.52c11.8,4.02,24.33,5.97,36.79,5.74,7.23-.13,14.33-1.27,21.47-2.23,5.68-.76,11.56-1.16,17.18-2.31s11.19-3.5,16.77-5.18c7.06-2.13,14.01-4.19,20.87-6.91,18.5-7.34,36.46-16.12,54.15-25.21,15.53-7.98,31.24-16.09,45.74-25.87,1.59-1.07.09-3.67-1.51-2.59h0Z"/>
    </g>
  </g>
</svg>